<svg xmlns="http://www.w3.org/2000/svg" xmlns:xlink="http://www.w3.org/1999/xlink" width="500" zoomAndPan="magnify" viewBox="0 0 375 374.999991" height="500" preserveAspectRatio="xMidYMid meet" version="1.0"><defs><g/><clipPath id="00eabfa586"><path d="M 287.066406 188.25 L 291.136719 188.25 L 291.136719 192.320312 L 287.066406 192.320312 Z M 287.066406 188.25 " clip-rule="nonzero"/></clipPath><clipPath id="ca242b5f14"><path d="M 289.101562 188.25 C 287.976562 188.25 287.066406 189.160156 287.066406 190.285156 C 287.066406 191.40625 287.976562 192.320312 289.101562 192.320312 C 290.226562 192.320312 291.136719 191.40625 291.136719 190.285156 C 291.136719 189.160156 290.226562 188.25 289.101562 188.25 Z M 289.101562 188.25 " clip-rule="nonzero"/></clipPath><clipPath id="ed94bf1579"><path d="M 0.0664062 0.25 L 4.136719 0.25 L 4.136719 4.320312 L 0.0664062 4.320312 Z M 0.0664062 0.25 " clip-rule="nonzero"/></clipPath><clipPath id="e395ccbe8c"><path d="M 2.101562 0.25 C 0.976562 0.25 0.0664062 1.160156 0.0664062 2.285156 C 0.0664062 3.40625 0.976562 4.320312 2.101562 4.320312 C 3.226562 4.320312 4.136719 3.40625 4.136719 2.285156 C 4.136719 1.160156 3.226562 0.25 2.101562 0.25 Z M 2.101562 0.25 " clip-rule="nonzero"/></clipPath><clipPath id="dc5030c1af"><rect x="0" width="5" y="0" height="5"/></clipPath></defs><rect x="-37.5" width="450" fill="#ffffff" y="-37.499999" height="449.999989" fill-opacity="1"/><rect x="-37.5" width="450" fill="#ffffff" y="-37.499999" height="449.999989" fill-opacity="1"/><g fill="#000000" fill-opacity="1"><g transform="translate(72.92294, 228.234966)"><g><path d="M 52.015625 -40.6875 C 51.972656 -40.519531 51.929688 -40.351562 51.890625 -40.1875 C 51.546875 -38.5 51.148438 -36.835938 50.703125 -35.203125 C 48.296875 -27.066406 45.582031 -19.140625 42.5625 -11.421875 C 41.582031 -8.929688 40.5625 -6.472656 39.5 -4.046875 C 38.445312 -1.628906 37.378906 0.789062 36.296875 3.21875 C 36.046875 3.769531 35.789062 4.328125 35.53125 4.890625 C 35.519531 4.941406 35.503906 4.976562 35.484375 5 C 35.429688 5.164062 35.363281 5.3125 35.28125 5.4375 C 35.195312 5.5625 35.066406 5.640625 34.890625 5.671875 C 34.804688 5.679688 34.71875 5.671875 34.625 5.640625 C 34.53125 5.617188 34.457031 5.582031 34.40625 5.53125 C 34.351562 5.476562 34.304688 5.394531 34.265625 5.28125 C 34.234375 5.164062 34.226562 5.066406 34.25 4.984375 C 34.394531 4.453125 34.578125 3.941406 34.796875 3.453125 C 35.265625 2.296875 35.734375 1.132812 36.203125 -0.03125 C 37.117188 -2.164062 38.003906 -4.3125 38.859375 -6.46875 C 40.773438 -11.257812 42.554688 -16.128906 44.203125 -21.078125 C 45.847656 -26.023438 47.429688 -31.007812 48.953125 -36.03125 C 49.578125 -37.96875 50.015625 -40.003906 50.265625 -42.140625 C 50.328125 -42.523438 50.359375 -42.910156 50.359375 -43.296875 C 50.359375 -43.691406 50.328125 -44.09375 50.265625 -44.5 C 50.054688 -45.363281 49.625 -45.6875 48.96875 -45.46875 C 48.382812 -45.238281 47.835938 -44.957031 47.328125 -44.625 C 46.160156 -43.800781 45.019531 -42.921875 43.90625 -41.984375 C 37.894531 -36.847656 32.640625 -30.832031 28.140625 -23.9375 C 28.078125 -23.832031 28.003906 -23.726562 27.921875 -23.625 C 26.367188 -21.257812 24.832031 -18.878906 23.3125 -16.484375 C 21.789062 -14.085938 20.328125 -11.644531 18.921875 -9.15625 C 18.648438 -8.632812 18.34375 -8.140625 18 -7.671875 C 17.65625 -7.160156 17.175781 -6.910156 16.5625 -6.921875 C 16.3125 -6.910156 16.082031 -6.992188 15.875 -7.171875 C 15.675781 -7.359375 15.578125 -7.601562 15.578125 -7.90625 C 15.566406 -8.707031 15.617188 -9.488281 15.734375 -10.25 C 16.054688 -12.664062 16.429688 -15.0625 16.859375 -17.4375 C 16.921875 -17.8125 16.972656 -18.164062 17.015625 -18.5 C 17.078125 -19.375 17.238281 -20.195312 17.5 -20.96875 C 17.5 -20.988281 17.492188 -21 17.484375 -21 C 17.367188 -21.03125 17.257812 -21.050781 17.15625 -21.0625 C 17.0625 -21.082031 16.976562 -21.035156 16.90625 -20.921875 C 16.625 -20.484375 16.351562 -20.03125 16.09375 -19.5625 C 14.039062 -15.5625 12.015625 -11.53125 10.015625 -7.46875 C 8.015625 -3.414062 6.09375 0.679688 4.25 4.828125 C 4.09375 5.234375 3.90625 5.566406 3.6875 5.828125 C 3.476562 6.097656 3.15625 6.238281 2.71875 6.25 C 2.519531 6.226562 2.347656 6.128906 2.203125 5.953125 C 2.066406 5.785156 2.019531 5.613281 2.0625 5.4375 C 2.195312 4.894531 2.359375 4.367188 2.546875 3.859375 C 3.109375 2.410156 3.65625 0.972656 4.1875 -0.453125 C 5.269531 -3.316406 6.332031 -6.191406 7.375 -9.078125 C 9 -13.472656 10.351562 -18.054688 11.4375 -22.828125 C 11.851562 -24.660156 12.125 -26.554688 12.25 -28.515625 C 12.34375 -29.566406 12.285156 -30.632812 12.078125 -31.71875 C 11.671875 -33.445312 10.878906 -34.601562 9.703125 -35.1875 C 8.535156 -35.78125 7.097656 -35.921875 5.390625 -35.609375 C 3.691406 -35.296875 1.859375 -34.632812 -0.109375 -33.625 C -2.085938 -32.625 -4.082031 -31.40625 -6.09375 -29.96875 C -8.101562 -28.53125 -10.015625 -26.988281 -11.828125 -25.34375 C -13.648438 -23.707031 -15.242188 -22.085938 -16.609375 -20.484375 C -17.972656 -18.890625 -19 -17.425781 -19.6875 -16.09375 C -20.40625 -14.65625 -20.96875 -13.097656 -21.375 -11.421875 C -21.582031 -10.617188 -21.644531 -9.773438 -21.5625 -8.890625 C -21.550781 -8.710938 -21.613281 -8.566406 -21.75 -8.453125 C -21.882812 -8.335938 -22.050781 -8.285156 -22.25 -8.296875 C -22.570312 -8.347656 -22.800781 -8.554688 -22.9375 -8.921875 C -23.070312 -9.410156 -23.109375 -9.878906 -23.046875 -10.328125 C -22.929688 -11.421875 -22.707031 -12.472656 -22.375 -13.484375 C -21.78125 -15.265625 -20.722656 -17.15625 -19.203125 -19.15625 C -17.691406 -21.164062 -15.875 -23.144531 -13.75 -25.09375 C -11.632812 -27.039062 -9.382812 -28.835938 -7 -30.484375 C -4.613281 -32.140625 -2.242188 -33.503906 0.109375 -34.578125 C 2.472656 -35.660156 4.65625 -36.328125 6.65625 -36.578125 C 8.65625 -36.835938 10.304688 -36.550781 11.609375 -35.71875 C 12.921875 -34.882812 13.738281 -33.363281 14.0625 -31.15625 C 14.226562 -29.738281 14.222656 -28.363281 14.046875 -27.03125 C 13.804688 -25.050781 13.460938 -23.128906 13.015625 -21.265625 C 12.566406 -19.398438 12.070312 -17.570312 11.53125 -15.78125 C 11.375 -15.207031 11.363281 -14.9375 11.5 -14.96875 C 11.632812 -15 11.816406 -15.238281 12.046875 -15.6875 C 12.867188 -17.21875 13.679688 -18.734375 14.484375 -20.234375 C 15.046875 -21.242188 15.625 -22.234375 16.21875 -23.203125 C 16.300781 -23.347656 16.375 -23.484375 16.4375 -23.609375 C 16.769531 -24.191406 17.21875 -24.617188 17.78125 -24.890625 C 18.21875 -25.054688 18.609375 -25.015625 18.953125 -24.765625 C 19.304688 -24.523438 19.484375 -24.097656 19.484375 -23.484375 C 19.472656 -23.421875 19.460938 -23.359375 19.453125 -23.296875 C 19.421875 -22.503906 19.359375 -21.734375 19.265625 -20.984375 C 19.003906 -19.140625 18.71875 -17.300781 18.40625 -15.46875 C 18.257812 -14.519531 18.125 -13.566406 18 -12.609375 C 17.957031 -12.460938 17.90625 -12.207031 17.84375 -11.84375 C 17.78125 -11.519531 17.71875 -11.203125 17.65625 -10.890625 C 17.601562 -10.578125 17.5625 -10.335938 17.53125 -10.171875 C 17.59375 -10.242188 18.171875 -11.15625 19.265625 -12.90625 C 20.742188 -15.28125 22.492188 -18.066406 24.515625 -21.265625 C 26.535156 -24.460938 28.132812 -26.914062 29.3125 -28.625 C 31.5 -31.675781 33.863281 -34.515625 36.40625 -37.140625 C 38.945312 -39.765625 41.628906 -42.203125 44.453125 -44.453125 C 45.160156 -44.960938 45.890625 -45.453125 46.640625 -45.921875 C 46.804688 -46.003906 46.960938 -46.09375 47.109375 -46.1875 C 47.816406 -46.625 48.609375 -46.867188 49.484375 -46.921875 C 51.160156 -47.035156 52.085938 -46.125 52.265625 -44.1875 C 52.359375 -42.957031 52.273438 -41.789062 52.015625 -40.6875 Z M 17.390625 -21.0625 C 17.453125 -21.03125 17.488281 -21.007812 17.5 -21 C 17.5 -21 17.5 -20.988281 17.5 -20.96875 C 17.519531 -20.96875 17.53125 -20.976562 17.53125 -21 C 17.5 -21.007812 17.453125 -21.03125 17.390625 -21.0625 Z M 17.390625 -21.0625 "/></g></g><g transform="translate(121.969158, 220.268697)"><g><path d="M 8.359375 -8.15625 C 8.585938 -8.082031 8.648438 -7.804688 8.546875 -7.328125 C 8.347656 -6.960938 8.128906 -6.609375 7.890625 -6.265625 C 7.648438 -5.929688 7.382812 -5.625 7.09375 -5.34375 C 7.070312 -5.34375 7.0625 -5.332031 7.0625 -5.3125 C 6.851562 -5.125 6.628906 -4.953125 6.390625 -4.796875 C 4.441406 -3.710938 3.3125 -3.976562 3 -5.59375 C 2.28125 -4.71875 1.789062 -4.175781 1.53125 -3.96875 C 0.914062 -3.445312 0.203125 -3.144531 -0.609375 -3.0625 C -1.203125 -3 -1.628906 -3.113281 -1.890625 -3.40625 C -2.160156 -3.707031 -2.210938 -4.15625 -2.046875 -4.75 C -1.804688 -5.6875 -1.394531 -6.554688 -0.8125 -7.359375 C -0.101562 -8.253906 0.710938 -9.007812 1.640625 -9.625 C 2.140625 -9.988281 2.6875 -10.1875 3.28125 -10.21875 C 3.882812 -10.269531 4.289062 -9.992188 4.5 -9.390625 C 4.582031 -9.203125 4.566406 -9.023438 4.453125 -8.859375 C 4.285156 -8.660156 4.070312 -8.582031 3.8125 -8.625 C 3.789062 -8.613281 3.765625 -8.609375 3.734375 -8.609375 C 3.703125 -8.617188 3.675781 -8.632812 3.65625 -8.65625 C 3.34375 -8.957031 3.066406 -9.054688 2.828125 -8.953125 C 2.585938 -8.859375 2.332031 -8.707031 2.0625 -8.5 C 0.851562 -7.5 0.0351562 -6.25 -0.390625 -4.75 C -0.410156 -4.675781 -0.421875 -4.601562 -0.421875 -4.53125 C -0.421875 -4.457031 -0.390625 -4.398438 -0.328125 -4.359375 C -0.160156 -4.328125 0.0078125 -4.363281 0.1875 -4.46875 C 0.375 -4.582031 0.550781 -4.722656 0.71875 -4.890625 C 0.882812 -5.066406 1.023438 -5.21875 1.140625 -5.34375 C 1.140625 -5.375 1.140625 -5.390625 1.140625 -5.390625 C 1.703125 -6.015625 2.238281 -6.65625 2.75 -7.3125 C 2.96875 -7.644531 3.273438 -7.859375 3.671875 -7.953125 C 4.242188 -8.046875 4.519531 -7.832031 4.5 -7.3125 C 4.476562 -7.113281 4.453125 -6.910156 4.421875 -6.703125 C 4.335938 -5.835938 4.410156 -5.351562 4.640625 -5.25 C 4.878906 -5.144531 5.195312 -5.195312 5.59375 -5.40625 C 6 -5.613281 6.382812 -5.953125 6.75 -6.421875 C 7.125 -6.898438 7.425781 -7.328125 7.65625 -7.703125 C 7.894531 -8.085938 8.128906 -8.238281 8.359375 -8.15625 Z M 8.359375 -8.15625 "/></g></g><g transform="translate(130.596816, 218.86736)"><g><path d="M 9.109375 -8.453125 C 9.253906 -8.253906 9.125 -7.882812 8.71875 -7.34375 C 8.3125 -6.8125 7.546875 -6.125 6.421875 -5.28125 C 5.992188 -5.007812 5.6875 -4.796875 5.5 -4.640625 C 5.3125 -4.492188 5.179688 -4.328125 5.109375 -4.140625 C 5.035156 -3.953125 4.976562 -3.664062 4.9375 -3.28125 C 4.882812 -3 4.816406 -2.617188 4.734375 -2.140625 C 4.609375 -1.554688 4.488281 -0.953125 4.375 -0.328125 C 4.195312 0.941406 3.9375 2.203125 3.59375 3.453125 C 3.257812 4.710938 2.75 5.847656 2.0625 6.859375 C 1.375 7.878906 0.394531 8.644531 -0.875 9.15625 C -2.144531 9.601562 -3.40625 9.84375 -4.65625 9.875 C -5.914062 9.90625 -7.179688 9.757812 -8.453125 9.4375 C -8.972656 9.3125 -9.453125 9.097656 -9.890625 8.796875 C -10.617188 8.242188 -10.785156 7.519531 -10.390625 6.625 C -10.160156 6.175781 -9.878906 5.765625 -9.546875 5.390625 C -8.890625 4.648438 -8.1875 3.953125 -7.4375 3.296875 C -6.03125 2.109375 -4.582031 0.992188 -3.09375 -0.046875 C -1.601562 -1.097656 -0.0859375 -2.117188 1.453125 -3.109375 C 1.554688 -3.179688 1.675781 -3.257812 1.8125 -3.34375 C 2.226562 -3.625 2.660156 -3.90625 3.109375 -4.1875 C 3.410156 -4.363281 3.59375 -4.617188 3.65625 -4.953125 C 3.664062 -5.078125 3.660156 -5.1875 3.640625 -5.28125 C 3.609375 -5.332031 3.566406 -5.359375 3.515625 -5.359375 C 3.460938 -5.367188 3.414062 -5.347656 3.375 -5.296875 C 3.21875 -5.171875 3.0625 -5.035156 2.90625 -4.890625 C 2.8125 -4.816406 2.710938 -4.738281 2.609375 -4.65625 C 2.078125 -4.207031 1.488281 -3.953125 0.84375 -3.890625 C -0.175781 -3.722656 -0.769531 -4.097656 -0.9375 -5.015625 C -1.070312 -5.753906 -1.054688 -6.476562 -0.890625 -7.1875 C -0.734375 -7.894531 -0.445312 -8.585938 -0.03125 -9.265625 C 0.0078125 -9.328125 0.0703125 -9.382812 0.15625 -9.4375 C 0.238281 -9.5 0.332031 -9.546875 0.4375 -9.578125 C 0.445312 -9.578125 0.460938 -9.585938 0.484375 -9.609375 C 0.679688 -9.660156 0.84375 -9.632812 0.96875 -9.53125 C 1.09375 -9.4375 1.132812 -9.300781 1.09375 -9.125 C 1.019531 -8.863281 0.945312 -8.597656 0.875 -8.328125 C 0.8125 -8.128906 0.742188 -7.925781 0.671875 -7.71875 C 0.421875 -6.914062 0.378906 -6.101562 0.546875 -5.28125 C 0.585938 -5.101562 0.679688 -4.988281 0.828125 -4.9375 C 0.972656 -4.882812 1.125 -4.910156 1.28125 -5.015625 C 1.769531 -5.304688 2.171875 -5.671875 2.484375 -6.109375 C 3.378906 -7.210938 4.054688 -8.4375 4.515625 -9.78125 C 4.585938 -9.957031 4.675781 -10.117188 4.78125 -10.265625 C 4.882812 -10.410156 5.039062 -10.507812 5.25 -10.5625 C 5.507812 -10.632812 5.722656 -10.609375 5.890625 -10.484375 C 6.066406 -10.359375 6.140625 -10.175781 6.109375 -9.9375 C 5.992188 -9.113281 5.859375 -8.300781 5.703125 -7.5 C 5.691406 -7.4375 5.679688 -7.378906 5.671875 -7.328125 C 5.628906 -7.128906 5.59375 -6.929688 5.5625 -6.734375 C 5.539062 -6.535156 5.539062 -6.363281 5.5625 -6.21875 C 5.582031 -6.082031 5.648438 -6.019531 5.765625 -6.03125 C 6.234375 -6.21875 6.867188 -6.71875 7.671875 -7.53125 C 8.484375 -8.34375 8.960938 -8.648438 9.109375 -8.453125 Z M 3.140625 -2.109375 C 3.128906 -2.148438 3.140625 -2.195312 3.171875 -2.25 C 3.203125 -2.34375 3.210938 -2.445312 3.203125 -2.5625 C 3.203125 -2.675781 3.15625 -2.789062 3.0625 -2.90625 C 3 -2.894531 2.945312 -2.882812 2.90625 -2.875 C 2.789062 -2.820312 2.691406 -2.773438 2.609375 -2.734375 C 2.429688 -2.617188 2.25 -2.5 2.0625 -2.375 C 0.65625 -1.425781 -0.75 -0.457031 -2.15625 0.53125 C -3.5625 1.519531 -4.925781 2.554688 -6.25 3.640625 C -7.0625 4.296875 -7.8125 5.035156 -8.5 5.859375 C -9.039062 6.535156 -9.265625 7.085938 -9.171875 7.515625 C -9.078125 7.941406 -8.632812 8.265625 -7.84375 8.484375 C -6.0625 9.078125 -4.222656 9.140625 -2.328125 8.671875 C -1.054688 8.328125 -0.0859375 7.664062 0.578125 6.6875 C 1.253906 5.707031 1.757812 4.582031 2.09375 3.3125 C 2.425781 2.039062 2.6875 0.785156 2.875 -0.453125 C 2.945312 -1.023438 3.035156 -1.578125 3.140625 -2.109375 Z M 3.140625 -2.109375 "/></g></g><g transform="translate(140.070323, 217.328638)"><g><path d="M 1.5625 -3.40625 L 1.53125 -3.40625 C 0.269531 -3.21875 -0.597656 -3.363281 -1.078125 -3.84375 C -1.566406 -4.320312 -1.671875 -5.050781 -1.390625 -6.03125 C -1.140625 -6.769531 -0.78125 -7.4375 -0.3125 -8.03125 C -0.144531 -8.238281 0.0234375 -8.410156 0.203125 -8.546875 C 0.390625 -8.679688 0.609375 -8.769531 0.859375 -8.8125 C 1.003906 -8.863281 1.179688 -8.867188 1.390625 -8.828125 C 1.453125 -8.816406 1.519531 -8.800781 1.59375 -8.78125 C 1.71875 -8.84375 1.847656 -8.914062 1.984375 -9 C 2.015625 -9.03125 2.054688 -9.0625 2.109375 -9.09375 C 2.390625 -9.257812 2.6875 -9.359375 3 -9.390625 C 3.132812 -9.410156 3.269531 -9.429688 3.40625 -9.453125 C 3.925781 -9.453125 4.347656 -9.296875 4.671875 -8.984375 C 4.992188 -8.679688 5.15625 -8.269531 5.15625 -7.75 C 5.164062 -7.445312 5.113281 -7.144531 5 -6.84375 C 4.289062 -4.894531 3.171875 -3.753906 1.640625 -3.421875 Z M 2.875 -8.421875 C 2.175781 -8.328125 1.59375 -8.03125 1.125 -7.53125 C 0.664062 -7.03125 0.347656 -6.476562 0.171875 -5.875 C -0.00390625 -5.28125 -0.00390625 -4.816406 0.171875 -4.484375 C 0.347656 -4.160156 0.726562 -4.128906 1.3125 -4.390625 C 1.957031 -4.703125 2.5 -5.1875 2.9375 -5.84375 C 3.375 -6.507812 3.609375 -7.109375 3.640625 -7.640625 C 3.679688 -8.171875 3.425781 -8.429688 2.875 -8.421875 Z M 2.875 -8.421875 "/></g></g><g transform="translate(146.980257, 216.206301)"><g><path d="M 9.015625 -8.265625 C 9.097656 -8.191406 9.128906 -8.101562 9.109375 -8 C 9.097656 -7.894531 9.050781 -7.796875 8.96875 -7.703125 C 8.4375 -7.078125 7.832031 -6.539062 7.15625 -6.09375 C 5.988281 -5.300781 4.726562 -4.71875 3.375 -4.34375 C 2.28125 -4.0625 1.203125 -4.0625 0.140625 -4.34375 C -0.234375 -4.445312 -0.484375 -4.316406 -0.609375 -3.953125 C -0.785156 -3.421875 -0.960938 -2.898438 -1.140625 -2.390625 C -1.234375 -2.097656 -1.332031 -1.800781 -1.4375 -1.5 C -1.457031 -1.445312 -1.46875 -1.398438 -1.46875 -1.359375 C -1.519531 -1.253906 -1.566406 -1.15625 -1.609375 -1.0625 C -1.648438 -0.96875 -1.742188 -0.890625 -1.890625 -0.828125 C -1.929688 -0.796875 -1.992188 -0.773438 -2.078125 -0.765625 C -2.160156 -0.753906 -2.238281 -0.757812 -2.3125 -0.78125 C -2.375 -0.820312 -2.425781 -0.875 -2.46875 -0.9375 C -2.519531 -1.007812 -2.550781 -1.085938 -2.5625 -1.171875 C -2.539062 -1.421875 -2.492188 -1.679688 -2.421875 -1.953125 C -2.273438 -2.535156 -2.128906 -3.117188 -1.984375 -3.703125 C -1.617188 -5.160156 -1.210938 -6.609375 -0.765625 -8.046875 C 0.421875 -12.035156 1.519531 -16.039062 2.53125 -20.0625 C 2.601562 -20.445312 2.734375 -20.796875 2.921875 -21.109375 C 3.066406 -21.359375 3.289062 -21.457031 3.59375 -21.40625 C 3.9375 -21.332031 4.070312 -21.128906 4 -20.796875 C 3.894531 -20.109375 3.773438 -19.425781 3.640625 -18.75 C 2.921875 -15.570312 2.070312 -12.4375 1.09375 -9.34375 C 0.894531 -8.675781 0.851562 -8.269531 0.96875 -8.125 C 1.082031 -7.988281 1.285156 -8.007812 1.578125 -8.1875 C 1.878906 -8.363281 2.226562 -8.601562 2.625 -8.90625 C 2.882812 -9.132812 3.160156 -9.335938 3.453125 -9.515625 C 3.503906 -9.566406 3.554688 -9.601562 3.609375 -9.625 C 3.929688 -9.882812 4.304688 -10.0625 4.734375 -10.15625 C 4.898438 -10.175781 5.03125 -10.125 5.125 -10 C 5.1875 -9.914062 5.207031 -9.832031 5.1875 -9.75 C 5.164062 -9.675781 5.125 -9.617188 5.0625 -9.578125 C 4.457031 -9.085938 3.851562 -8.613281 3.25 -8.15625 C 2.957031 -7.945312 2.648438 -7.734375 2.328125 -7.515625 C 2.023438 -7.296875 1.71875 -7.078125 1.40625 -6.859375 C 1.207031 -6.691406 1.023438 -6.503906 0.859375 -6.296875 C 0.492188 -5.765625 0.601562 -5.394531 1.1875 -5.1875 C 1.664062 -5.050781 2.128906 -5.015625 2.578125 -5.078125 C 3.023438 -5.140625 3.457031 -5.265625 3.875 -5.453125 C 5.195312 -5.992188 6.410156 -6.703125 7.515625 -7.578125 C 7.597656 -7.660156 7.679688 -7.726562 7.765625 -7.78125 C 7.960938 -7.957031 8.179688 -8.125 8.421875 -8.28125 C 8.503906 -8.332031 8.601562 -8.363281 8.71875 -8.375 C 8.832031 -8.394531 8.929688 -8.359375 9.015625 -8.265625 Z M 9.015625 -8.265625 "/></g></g><g transform="translate(156.14145, 214.718306)"><g><path d="M -0.046875 -2.34375 C -0.867188 -2.21875 -1.347656 -2.585938 -1.484375 -3.453125 C -1.660156 -4.503906 -1.285156 -6.460938 -0.359375 -9.328125 C -0.328125 -9.453125 -0.238281 -9.523438 -0.09375 -9.546875 C 0.445312 -9.628906 0.753906 -9.457031 0.828125 -9.03125 C 0.847656 -8.875 0.832031 -8.675781 0.78125 -8.4375 C 0.75 -8.363281 0.476562 -7.144531 -0.03125 -4.78125 C -0.101562 -4.394531 -0.125 -4.113281 -0.09375 -3.9375 C -0.0625 -3.738281 0.0351562 -3.65625 0.203125 -3.6875 C 0.835938 -3.789062 2.242188 -5.632812 4.421875 -9.21875 C 4.703125 -9.707031 5.003906 -9.984375 5.328125 -10.046875 C 5.835938 -10.117188 6.125 -9.96875 6.1875 -9.59375 C 6.207031 -9.457031 6.132812 -8.910156 5.96875 -7.953125 C 5.769531 -6.648438 5.6875 -5.898438 5.71875 -5.703125 C 5.757812 -5.410156 5.867188 -5.28125 6.046875 -5.3125 C 6.523438 -5.382812 7.78125 -6.460938 9.8125 -8.546875 C 9.9375 -8.691406 10.046875 -8.769531 10.140625 -8.78125 C 10.347656 -8.8125 10.476562 -8.644531 10.53125 -8.28125 C 10.550781 -8.1875 10.535156 -8.101562 10.484375 -8.03125 C 9.429688 -6.78125 8.523438 -5.816406 7.765625 -5.140625 C 7.066406 -4.503906 6.414062 -4.132812 5.8125 -4.03125 L 5.625 -4 C 4.695312 -4.050781 4.132812 -4.6875 3.9375 -5.90625 C 3.113281 -4.90625 2.429688 -4.09375 1.890625 -3.46875 C 1.347656 -2.84375 0.703125 -2.46875 -0.046875 -2.34375 Z M -0.046875 -2.34375 "/></g></g><g transform="translate(166.838185, 212.980902)"><g><path d="M 9.25 -8.171875 C 9.414062 -8.015625 9.289062 -7.664062 8.875 -7.125 C 8.46875 -6.59375 8.015625 -6.125 7.515625 -5.71875 C 7.023438 -5.320312 6.445312 -4.910156 5.78125 -4.484375 C 5.332031 -4.191406 4.832031 -4.035156 4.28125 -4.015625 C 3.738281 -4.003906 3.421875 -4.289062 3.328125 -4.875 C 3.234375 -5.457031 3.269531 -6.054688 3.4375 -6.671875 C 3.613281 -7.296875 3.625 -7.601562 3.46875 -7.59375 C 3.320312 -7.582031 3.03125 -7.394531 2.59375 -7.03125 C 1.488281 -6.019531 0.488281 -4.894531 -0.40625 -3.65625 C -0.632812 -3.257812 -0.96875 -3.007812 -1.40625 -2.90625 C -1.632812 -2.863281 -1.820312 -2.90625 -1.96875 -3.03125 C -2.113281 -3.15625 -2.15625 -3.3125 -2.09375 -3.5 C -1.5625 -5.03125 -1.015625 -6.550781 -0.453125 -8.0625 C -0.328125 -8.375 -0.09375 -8.59375 0.25 -8.71875 C 0.382812 -8.769531 0.519531 -8.742188 0.65625 -8.640625 C 0.800781 -8.546875 0.890625 -8.425781 0.921875 -8.28125 C 0.929688 -8.144531 0.898438 -7.972656 0.828125 -7.765625 C 0.796875 -7.648438 0.769531 -7.535156 0.75 -7.421875 C 0.738281 -7.304688 0.742188 -7.210938 0.765625 -7.140625 C 0.785156 -7.078125 0.835938 -7.066406 0.921875 -7.109375 C 1.054688 -7.191406 1.179688 -7.285156 1.296875 -7.390625 C 1.597656 -7.640625 1.882812 -7.875 2.15625 -8.09375 C 2.40625 -8.289062 2.664062 -8.472656 2.9375 -8.640625 C 3.207031 -8.816406 3.503906 -8.953125 3.828125 -9.046875 C 4.335938 -9.171875 4.722656 -9.113281 4.984375 -8.875 C 5.242188 -8.632812 5.332031 -8.265625 5.25 -7.765625 C 5.144531 -7.304688 5.023438 -6.847656 4.890625 -6.390625 C 4.734375 -5.960938 4.75 -5.648438 4.9375 -5.453125 C 5.125 -5.265625 5.804688 -5.628906 6.984375 -6.546875 L 7.875 -7.265625 C 8.695312 -7.992188 9.15625 -8.296875 9.25 -8.171875 Z M 9.25 -8.171875 "/></g></g><g transform="translate(176.376757, 211.431612)"><g/></g><g transform="translate(186.214629, 209.833708)"><g><path d="M 68.390625 -23.3125 C 66.703125 -23.238281 65.019531 -23.066406 63.34375 -22.796875 C 62.601562 -22.703125 61.851562 -22.601562 61.09375 -22.5 C 54.09375 -21.644531 47.113281 -20.582031 40.15625 -19.3125 C 39.800781 -19.257812 39.507812 -19.210938 39.28125 -19.171875 C 38.90625 -19.148438 38.628906 -19.109375 38.453125 -19.046875 C 38.285156 -18.984375 38.164062 -18.863281 38.09375 -18.6875 C 38.019531 -18.507812 37.941406 -18.222656 37.859375 -17.828125 C 37.796875 -17.609375 37.722656 -17.332031 37.640625 -17 C 36.878906 -14.269531 36.234375 -11.519531 35.703125 -8.75 C 35.328125 -6.957031 35.113281 -5.144531 35.0625 -3.3125 C 35.03125 -2.738281 35.070312 -2.191406 35.1875 -1.671875 C 35.3125 -1.148438 35.628906 -0.71875 36.140625 -0.375 C 36.191406 -0.332031 36.21875 -0.273438 36.21875 -0.203125 C 36.21875 -0.140625 36.191406 -0.078125 36.140625 -0.015625 C 36.085938 0.046875 36.03125 0.09375 35.96875 0.125 C 34.957031 0.445312 34.273438 0.175781 33.921875 -0.6875 C 33.710938 -1.15625 33.609375 -1.664062 33.609375 -2.21875 C 33.597656 -2.257812 33.59375 -2.289062 33.59375 -2.3125 C 33.519531 -3.21875 33.535156 -4.140625 33.640625 -5.078125 C 33.742188 -6.023438 33.875 -6.976562 34.03125 -7.9375 C 34.5625 -10.800781 35.203125 -13.644531 35.953125 -16.46875 C 36.003906 -16.59375 36.035156 -16.71875 36.046875 -16.84375 C 36.085938 -16.976562 36.132812 -17.125 36.1875 -17.28125 C 36.25 -17.46875 36.300781 -17.664062 36.34375 -17.875 C 36.394531 -18.082031 36.394531 -18.296875 36.34375 -18.515625 C 36.226562 -18.566406 36.125 -18.59375 36.03125 -18.59375 C 35.9375 -18.601562 35.84375 -18.59375 35.75 -18.5625 C 35.726562 -18.550781 35.703125 -18.546875 35.671875 -18.546875 C 34.859375 -18.410156 34.039062 -18.265625 33.21875 -18.109375 C 33 -18.078125 32.757812 -18.039062 32.5 -18 C 32.195312 -17.9375 31.957031 -17.800781 31.78125 -17.59375 C 31.601562 -17.382812 31.441406 -17.132812 31.296875 -16.84375 C 31.097656 -16.488281 30.898438 -16.128906 30.703125 -15.765625 C 29.847656 -14.222656 28.992188 -12.703125 28.140625 -11.203125 C 26.847656 -8.992188 25.472656 -6.84375 24.015625 -4.75 C 22.566406 -2.664062 20.984375 -0.675781 19.265625 1.21875 C 17.140625 3.65625 14.816406 5.867188 12.296875 7.859375 C 8.421875 10.816406 4.15625 12.613281 -0.5 13.25 C -4.875 13.863281 -9.003906 13.320312 -12.890625 11.625 C -13.984375 11.15625 -14.984375 10.535156 -15.890625 9.765625 C -16.503906 9.210938 -17.019531 8.59375 -17.4375 7.90625 C -17.851562 7.226562 -18.128906 6.457031 -18.265625 5.59375 C -18.390625 4.5625 -18.3125 3.566406 -18.03125 2.609375 C -17.75 1.660156 -17.28125 0.757812 -16.625 -0.09375 C -15.75 -1.257812 -14.738281 -2.304688 -13.59375 -3.234375 C -12.488281 -4.140625 -11.332031 -4.960938 -10.125 -5.703125 C -8.914062 -6.441406 -7.6875 -7.128906 -6.4375 -7.765625 C -4.40625 -8.796875 -2.335938 -9.722656 -0.234375 -10.546875 C 1.867188 -11.367188 3.984375 -12.117188 6.109375 -12.796875 C 11.203125 -14.359375 16.347656 -15.6875 21.546875 -16.78125 C 24.191406 -17.375 26.835938 -17.890625 29.484375 -18.328125 C 30.222656 -18.421875 30.738281 -18.816406 31.03125 -19.515625 C 31.570312 -20.617188 32.113281 -21.726562 32.65625 -22.84375 C 33.53125 -24.550781 34.367188 -26.28125 35.171875 -28.03125 C 38.929688 -36.238281 42.460938 -44.546875 45.765625 -52.953125 C 46.035156 -53.648438 46.304688 -54.363281 46.578125 -55.09375 C 46.679688 -55.46875 46.800781 -55.84375 46.9375 -56.21875 C 47.09375 -56.695312 47.410156 -57.003906 47.890625 -57.140625 C 48.160156 -57.179688 48.375 -57.132812 48.53125 -57 C 48.6875 -56.863281 48.734375 -56.664062 48.671875 -56.40625 C 48.609375 -56.175781 48.53125 -55.957031 48.4375 -55.75 C 47.925781 -54.320312 47.492188 -52.878906 47.140625 -51.421875 C 46.992188 -50.921875 46.851562 -50.414062 46.71875 -49.90625 C 45.425781 -45.238281 44.117188 -40.5625 42.796875 -35.875 C 41.796875 -32.269531 40.785156 -28.65625 39.765625 -25.03125 C 39.484375 -23.957031 39.195312 -22.890625 38.90625 -21.828125 C 38.84375 -21.609375 38.785156 -21.394531 38.734375 -21.1875 C 38.722656 -21.144531 38.710938 -21.09375 38.703125 -21.03125 C 38.660156 -20.875 38.628906 -20.722656 38.609375 -20.578125 C 38.597656 -20.441406 38.632812 -20.316406 38.71875 -20.203125 C 38.863281 -20.128906 39.019531 -20.101562 39.1875 -20.125 C 39.363281 -20.144531 39.53125 -20.164062 39.6875 -20.1875 C 39.800781 -20.226562 39.910156 -20.253906 40.015625 -20.265625 C 40.734375 -20.367188 41.457031 -20.488281 42.1875 -20.625 C 43.175781 -20.78125 44.164062 -20.929688 45.15625 -21.078125 C 50.570312 -21.859375 56.015625 -22.617188 61.484375 -23.359375 C 63.253906 -23.617188 65.023438 -23.832031 66.796875 -24 C 66.953125 -24 67.117188 -24.015625 67.296875 -24.046875 C 67.390625 -24.066406 67.492188 -24.082031 67.609375 -24.09375 C 67.828125 -24.132812 68.046875 -24.15625 68.265625 -24.15625 C 68.492188 -24.15625 68.707031 -24.113281 68.90625 -24.03125 C 68.945312 -24.007812 68.976562 -23.972656 69 -23.921875 C 69.03125 -23.867188 69.039062 -23.820312 69.03125 -23.78125 C 69.039062 -23.71875 69.023438 -23.660156 68.984375 -23.609375 C 68.953125 -23.554688 68.921875 -23.515625 68.890625 -23.484375 C 68.734375 -23.398438 68.566406 -23.34375 68.390625 -23.3125 Z M 29.640625 -16.875 C 29.671875 -17.007812 29.65625 -17.117188 29.59375 -17.203125 C 29.539062 -17.285156 29.457031 -17.320312 29.34375 -17.3125 C 29.164062 -17.300781 28.976562 -17.269531 28.78125 -17.21875 C 28.6875 -17.195312 28.59375 -17.179688 28.5 -17.171875 C 21.96875 -16.035156 15.488281 -14.523438 9.0625 -12.640625 C 6.601562 -11.910156 4.171875 -11.097656 1.765625 -10.203125 C -0.628906 -9.316406 -2.988281 -8.296875 -5.3125 -7.140625 C -6.539062 -6.535156 -7.75 -5.867188 -8.9375 -5.140625 C -10.125 -4.421875 -11.257812 -3.609375 -12.34375 -2.703125 C -13.488281 -1.804688 -14.492188 -0.765625 -15.359375 0.421875 C -16.367188 1.859375 -16.832031 3.289062 -16.75 4.71875 C -16.664062 6.144531 -16.078125 7.4375 -14.984375 8.59375 C -14.148438 9.394531 -13.21875 10.046875 -12.1875 10.546875 C -8.414062 12.398438 -4.191406 12.96875 0.484375 12.25 C 1.691406 12.050781 3.046875 11.664062 4.546875 11.09375 C 6.035156 10.53125 7.445312 9.820312 8.78125 8.96875 C 10.125 8.113281 11.40625 7.15625 12.625 6.09375 C 15.625 3.5 18.332031 0.601562 20.75 -2.59375 C 22.40625 -4.757812 23.9375 -7.003906 25.34375 -9.328125 C 26.757812 -11.648438 28.117188 -14.007812 29.421875 -16.40625 C 29.492188 -16.5625 29.566406 -16.71875 29.640625 -16.875 Z M 37.171875 -20.875 C 37.953125 -23.925781 38.785156 -26.988281 39.671875 -30.0625 C 39.703125 -30.226562 39.828125 -30.707031 40.046875 -31.5 C 40.265625 -32.300781 40.519531 -33.226562 40.8125 -34.28125 C 41.101562 -35.34375 41.363281 -36.335938 41.59375 -37.265625 C 41.820312 -38.203125 41.972656 -38.898438 42.046875 -39.359375 C 42.128906 -39.828125 42.082031 -39.863281 41.90625 -39.46875 C 41.851562 -39.375 41.820312 -39.289062 41.8125 -39.21875 C 41.632812 -38.875 41.476562 -38.539062 41.34375 -38.21875 C 40.144531 -35.488281 38.941406 -32.765625 37.734375 -30.046875 C 36.535156 -27.335938 35.269531 -24.648438 33.9375 -21.984375 C 33.820312 -21.722656 33.695312 -21.457031 33.5625 -21.1875 C 33.300781 -20.6875 33.050781 -20.175781 32.8125 -19.65625 C 32.707031 -19.445312 32.691406 -19.28125 32.765625 -19.15625 C 32.847656 -19.039062 32.988281 -19 33.1875 -19.03125 C 33.539062 -19.09375 33.878906 -19.160156 34.203125 -19.234375 C 34.742188 -19.367188 35.28125 -19.476562 35.8125 -19.5625 C 36.226562 -19.613281 36.53125 -19.75 36.71875 -19.96875 C 36.90625 -20.195312 37.054688 -20.5 37.171875 -20.875 Z M 37.171875 -20.875 "/></g></g><g transform="translate(227.466026, 203.133502)"><g><path d="M 9.015625 -8.265625 C 9.097656 -8.191406 9.128906 -8.101562 9.109375 -8 C 9.097656 -7.894531 9.050781 -7.796875 8.96875 -7.703125 C 8.4375 -7.078125 7.832031 -6.539062 7.15625 -6.09375 C 5.988281 -5.300781 4.726562 -4.71875 3.375 -4.34375 C 2.28125 -4.0625 1.203125 -4.0625 0.140625 -4.34375 C -0.234375 -4.445312 -0.484375 -4.316406 -0.609375 -3.953125 C -0.785156 -3.421875 -0.960938 -2.898438 -1.140625 -2.390625 C -1.234375 -2.097656 -1.332031 -1.800781 -1.4375 -1.5 C -1.457031 -1.445312 -1.46875 -1.398438 -1.46875 -1.359375 C -1.519531 -1.253906 -1.566406 -1.15625 -1.609375 -1.0625 C -1.648438 -0.96875 -1.742188 -0.890625 -1.890625 -0.828125 C -1.929688 -0.796875 -1.992188 -0.773438 -2.078125 -0.765625 C -2.160156 -0.753906 -2.238281 -0.757812 -2.3125 -0.78125 C -2.375 -0.820312 -2.425781 -0.875 -2.46875 -0.9375 C -2.519531 -1.007812 -2.550781 -1.085938 -2.5625 -1.171875 C -2.539062 -1.421875 -2.492188 -1.679688 -2.421875 -1.953125 C -2.273438 -2.535156 -2.128906 -3.117188 -1.984375 -3.703125 C -1.617188 -5.160156 -1.210938 -6.609375 -0.765625 -8.046875 C 0.421875 -12.035156 1.519531 -16.039062 2.53125 -20.0625 C 2.601562 -20.445312 2.734375 -20.796875 2.921875 -21.109375 C 3.066406 -21.359375 3.289062 -21.457031 3.59375 -21.40625 C 3.9375 -21.332031 4.070312 -21.128906 4 -20.796875 C 3.894531 -20.109375 3.773438 -19.425781 3.640625 -18.75 C 2.921875 -15.570312 2.070312 -12.4375 1.09375 -9.34375 C 0.894531 -8.675781 0.851562 -8.269531 0.96875 -8.125 C 1.082031 -7.988281 1.285156 -8.007812 1.578125 -8.1875 C 1.878906 -8.363281 2.226562 -8.601562 2.625 -8.90625 C 2.882812 -9.132812 3.160156 -9.335938 3.453125 -9.515625 C 3.503906 -9.566406 3.554688 -9.601562 3.609375 -9.625 C 3.929688 -9.882812 4.304688 -10.0625 4.734375 -10.15625 C 4.898438 -10.175781 5.03125 -10.125 5.125 -10 C 5.1875 -9.914062 5.207031 -9.832031 5.1875 -9.75 C 5.164062 -9.675781 5.125 -9.617188 5.0625 -9.578125 C 4.457031 -9.085938 3.851562 -8.613281 3.25 -8.15625 C 2.957031 -7.945312 2.648438 -7.734375 2.328125 -7.515625 C 2.023438 -7.296875 1.71875 -7.078125 1.40625 -6.859375 C 1.207031 -6.691406 1.023438 -6.503906 0.859375 -6.296875 C 0.492188 -5.765625 0.601562 -5.394531 1.1875 -5.1875 C 1.664062 -5.050781 2.128906 -5.015625 2.578125 -5.078125 C 3.023438 -5.140625 3.457031 -5.265625 3.875 -5.453125 C 5.195312 -5.992188 6.410156 -6.703125 7.515625 -7.578125 C 7.597656 -7.660156 7.679688 -7.726562 7.765625 -7.78125 C 7.960938 -7.957031 8.179688 -8.125 8.421875 -8.28125 C 8.503906 -8.332031 8.601562 -8.363281 8.71875 -8.375 C 8.832031 -8.394531 8.929688 -8.359375 9.015625 -8.265625 Z M 9.015625 -8.265625 "/></g></g><g transform="translate(236.627219, 201.645507)"><g><path d="M 6.59375 -6.1875 C 6.175781 -5.613281 5.660156 -5.097656 5.046875 -4.640625 C 4.441406 -4.179688 3.921875 -3.859375 3.484375 -3.671875 C 3.046875 -3.492188 2.59375 -3.363281 2.125 -3.28125 C 1.375 -3.113281 0.65625 -3.097656 -0.03125 -3.234375 C -1.144531 -3.492188 -1.640625 -4.25 -1.515625 -5.5 C -1.378906 -6.570312 -0.894531 -7.472656 -0.0625 -8.203125 C 0.769531 -8.941406 1.6875 -9.390625 2.6875 -9.546875 C 2.6875 -9.546875 2.691406 -9.546875 2.703125 -9.546875 C 2.953125 -9.597656 3.191406 -9.613281 3.421875 -9.59375 C 3.828125 -9.519531 4.101562 -9.335938 4.25 -9.046875 C 4.40625 -8.753906 4.390625 -8.394531 4.203125 -7.96875 C 3.785156 -7.03125 3.113281 -6.4375 2.1875 -6.1875 C 1.5625 -6.019531 0.945312 -5.953125 0.34375 -5.984375 C 0.226562 -5.984375 0.128906 -5.9375 0.046875 -5.84375 C -0.0234375 -5.75 -0.0625 -5.640625 -0.0625 -5.515625 C -0.113281 -4.753906 0.195312 -4.320312 0.875 -4.21875 C 1.695312 -4.070312 2.507812 -4.203125 3.3125 -4.609375 C 4.21875 -5.066406 5.039062 -5.789062 5.78125 -6.78125 C 6.53125 -7.769531 6.972656 -8.242188 7.109375 -8.203125 C 7.253906 -8.171875 7.328125 -8.015625 7.328125 -7.734375 C 7.265625 -7.285156 7.019531 -6.769531 6.59375 -6.1875 Z M 0.71875 -7.40625 C 0.664062 -7.332031 0.632812 -7.253906 0.625 -7.171875 C 0.625 -7.097656 0.664062 -7.035156 0.75 -6.984375 C 1.082031 -6.867188 1.425781 -6.859375 1.78125 -6.953125 C 2.132812 -7.054688 2.414062 -7.238281 2.625 -7.5 C 2.84375 -7.769531 2.90625 -8.0625 2.8125 -8.375 C 2.769531 -8.476562 2.695312 -8.535156 2.59375 -8.546875 C 2.488281 -8.566406 2.390625 -8.5625 2.296875 -8.53125 C 1.671875 -8.3125 1.144531 -7.9375 0.71875 -7.40625 Z M 0.71875 -7.40625 "/></g></g><g transform="translate(244.200819, 200.415375)"><g><path d="M 4.953125 -9 C 4.960938 -8.394531 4.738281 -7.960938 4.28125 -7.703125 C 3.832031 -7.441406 3.640625 -7.65625 3.703125 -8.34375 C 3.765625 -9.03125 3.441406 -9.144531 2.734375 -8.6875 C 2.023438 -8.238281 1.457031 -7.722656 1.03125 -7.140625 C 0.394531 -6.234375 -0.140625 -5.285156 -0.578125 -4.296875 C -0.617188 -4.210938 -0.65625 -4.144531 -0.6875 -4.09375 C -0.820312 -3.800781 -0.957031 -3.53125 -1.09375 -3.28125 C -1.175781 -3.101562 -1.289062 -2.984375 -1.4375 -2.921875 C -1.582031 -2.859375 -1.738281 -2.820312 -1.90625 -2.8125 C -2.050781 -2.8125 -2.171875 -2.851562 -2.265625 -2.9375 C -2.359375 -3.03125 -2.390625 -3.144531 -2.359375 -3.28125 C -2.296875 -3.53125 -2.222656 -3.785156 -2.140625 -4.046875 C -1.585938 -5.628906 -1.023438 -7.210938 -0.453125 -8.796875 C -0.441406 -8.816406 -0.4375 -8.835938 -0.4375 -8.859375 C -0.363281 -9.097656 -0.265625 -9.320312 -0.140625 -9.53125 C 0.00390625 -9.757812 0.191406 -9.875 0.421875 -9.875 C 0.648438 -9.875 0.828125 -9.757812 0.953125 -9.53125 C 1.097656 -9.257812 1.207031 -9.109375 1.28125 -9.078125 C 1.363281 -9.046875 1.507812 -9.097656 1.71875 -9.234375 C 2.21875 -9.503906 2.707031 -9.71875 3.1875 -9.875 C 3.664062 -10.03125 4.078125 -10.078125 4.421875 -10.015625 C 4.765625 -9.953125 4.941406 -9.613281 4.953125 -9 Z M 4.953125 -9 "/></g></g><g transform="translate(250.707349, 199.35856)"><g><path d="M 6.59375 -6.1875 C 6.175781 -5.613281 5.660156 -5.097656 5.046875 -4.640625 C 4.441406 -4.179688 3.921875 -3.859375 3.484375 -3.671875 C 3.046875 -3.492188 2.59375 -3.363281 2.125 -3.28125 C 1.375 -3.113281 0.65625 -3.097656 -0.03125 -3.234375 C -1.144531 -3.492188 -1.640625 -4.25 -1.515625 -5.5 C -1.378906 -6.570312 -0.894531 -7.472656 -0.0625 -8.203125 C 0.769531 -8.941406 1.6875 -9.390625 2.6875 -9.546875 C 2.6875 -9.546875 2.691406 -9.546875 2.703125 -9.546875 C 2.953125 -9.597656 3.191406 -9.613281 3.421875 -9.59375 C 3.828125 -9.519531 4.101562 -9.335938 4.25 -9.046875 C 4.40625 -8.753906 4.390625 -8.394531 4.203125 -7.96875 C 3.785156 -7.03125 3.113281 -6.4375 2.1875 -6.1875 C 1.5625 -6.019531 0.945312 -5.953125 0.34375 -5.984375 C 0.226562 -5.984375 0.128906 -5.9375 0.046875 -5.84375 C -0.0234375 -5.75 -0.0625 -5.640625 -0.0625 -5.515625 C -0.113281 -4.753906 0.195312 -4.320312 0.875 -4.21875 C 1.695312 -4.070312 2.507812 -4.203125 3.3125 -4.609375 C 4.21875 -5.066406 5.039062 -5.789062 5.78125 -6.78125 C 6.53125 -7.769531 6.972656 -8.242188 7.109375 -8.203125 C 7.253906 -8.171875 7.328125 -8.015625 7.328125 -7.734375 C 7.265625 -7.285156 7.019531 -6.769531 6.59375 -6.1875 Z M 0.71875 -7.40625 C 0.664062 -7.332031 0.632812 -7.253906 0.625 -7.171875 C 0.625 -7.097656 0.664062 -7.035156 0.75 -6.984375 C 1.082031 -6.867188 1.425781 -6.859375 1.78125 -6.953125 C 2.132812 -7.054688 2.414062 -7.238281 2.625 -7.5 C 2.84375 -7.769531 2.90625 -8.0625 2.8125 -8.375 C 2.769531 -8.476562 2.695312 -8.535156 2.59375 -8.546875 C 2.488281 -8.566406 2.390625 -8.5625 2.296875 -8.53125 C 1.671875 -8.3125 1.144531 -7.9375 0.71875 -7.40625 Z M 0.71875 -7.40625 "/></g></g><g transform="translate(258.280949, 198.128428)"><g><path d="M 12.546875 -8.734375 C 12.804688 -8.960938 13.03125 -9.046875 13.21875 -8.984375 C 13.414062 -8.921875 13.394531 -8.644531 13.15625 -8.15625 C 12.863281 -7.582031 12.269531 -6.921875 11.375 -6.171875 C 10.488281 -5.429688 9.660156 -5.035156 8.890625 -4.984375 C 8.128906 -4.941406 7.820312 -5.46875 7.96875 -6.5625 C 8.113281 -7.65625 8.191406 -8.265625 8.203125 -8.390625 C 8.210938 -8.515625 8.175781 -8.582031 8.09375 -8.59375 C 8.007812 -8.601562 7.851562 -8.488281 7.625 -8.25 C 6.925781 -7.59375 6.257812 -6.90625 5.625 -6.1875 C 5.320312 -5.894531 5.035156 -5.585938 4.765625 -5.265625 C 4.617188 -5.066406 4.453125 -4.863281 4.265625 -4.65625 C 4.265625 -4.65625 4.257812 -4.644531 4.25 -4.625 C 4.0625 -4.351562 3.8125 -4.15625 3.5 -4.03125 C 3.351562 -3.957031 3.191406 -3.910156 3.015625 -3.890625 C 2.847656 -3.878906 2.695312 -3.925781 2.5625 -4.03125 C 2.4375 -4.132812 2.375 -4.257812 2.375 -4.40625 C 2.375 -4.5625 2.441406 -4.796875 2.578125 -5.109375 C 2.722656 -5.429688 2.875 -5.78125 3.03125 -6.15625 C 3.195312 -6.53125 3.285156 -6.757812 3.296875 -6.84375 C 3.316406 -6.925781 3.296875 -7 3.234375 -7.0625 C 3.160156 -7.132812 3.085938 -7.148438 3.015625 -7.109375 C 2.953125 -7.066406 2.707031 -6.832031 2.28125 -6.40625 C 1.863281 -5.976562 1.296875 -5.394531 0.578125 -4.65625 C 0.222656 -4.3125 -0.101562 -3.957031 -0.40625 -3.59375 C -0.488281 -3.476562 -0.578125 -3.375 -0.671875 -3.28125 C -0.910156 -3.007812 -1.191406 -2.84375 -1.515625 -2.78125 C -1.734375 -2.726562 -1.910156 -2.75 -2.046875 -2.84375 C -2.179688 -2.945312 -2.226562 -3.109375 -2.1875 -3.328125 C -2.164062 -3.492188 -2.125 -3.648438 -2.0625 -3.796875 C -2.03125 -3.867188 -2.007812 -3.929688 -2 -3.984375 C -1.539062 -5.492188 -1.09375 -6.992188 -0.65625 -8.484375 C -0.644531 -8.535156 -0.632812 -8.59375 -0.625 -8.65625 C -0.570312 -8.8125 -0.515625 -8.960938 -0.453125 -9.109375 C -0.285156 -9.367188 -0.046875 -9.484375 0.265625 -9.453125 C 0.597656 -9.410156 0.753906 -9.242188 0.734375 -8.953125 C 0.628906 -8.492188 0.546875 -8.035156 0.484375 -7.578125 C 0.429688 -7.378906 0.382812 -7.175781 0.34375 -6.96875 C 0.257812 -6.613281 0.25 -6.390625 0.3125 -6.296875 C 0.375 -6.210938 0.582031 -6.316406 0.9375 -6.609375 C 1.164062 -6.816406 1.390625 -7.023438 1.609375 -7.234375 C 1.878906 -7.503906 2.144531 -7.75 2.40625 -7.96875 C 2.800781 -8.300781 3.210938 -8.597656 3.640625 -8.859375 C 3.859375 -8.992188 4.082031 -9.109375 4.3125 -9.203125 C 4.539062 -9.296875 4.773438 -9.28125 5.015625 -9.15625 C 5.191406 -9.039062 5.28125 -8.898438 5.28125 -8.734375 C 5.289062 -8.566406 5.269531 -8.398438 5.21875 -8.234375 C 5.132812 -7.929688 5.113281 -7.742188 5.15625 -7.671875 C 5.195312 -7.597656 5.265625 -7.59375 5.359375 -7.65625 C 5.460938 -7.726562 5.644531 -7.875 5.90625 -8.09375 C 6.164062 -8.3125 6.441406 -8.554688 6.734375 -8.828125 C 7.117188 -9.148438 7.519531 -9.472656 7.9375 -9.796875 C 8.28125 -10.109375 8.660156 -10.328125 9.078125 -10.453125 C 9.660156 -10.585938 9.941406 -10.382812 9.921875 -9.84375 C 9.910156 -9.300781 9.800781 -8.640625 9.59375 -7.859375 C 9.394531 -7.085938 9.4375 -6.640625 9.71875 -6.515625 C 10 -6.390625 10.515625 -6.703125 11.265625 -7.453125 C 12.015625 -8.210938 12.441406 -8.640625 12.546875 -8.734375 Z M 12.546875 -8.734375 "/></g></g><g transform="translate(272.048765, 195.892208)"><g><path d="M 8.359375 -8.15625 C 8.585938 -8.082031 8.648438 -7.804688 8.546875 -7.328125 C 8.347656 -6.960938 8.128906 -6.609375 7.890625 -6.265625 C 7.648438 -5.929688 7.382812 -5.625 7.09375 -5.34375 C 7.070312 -5.34375 7.0625 -5.332031 7.0625 -5.3125 C 6.851562 -5.125 6.628906 -4.953125 6.390625 -4.796875 C 4.441406 -3.710938 3.3125 -3.976562 3 -5.59375 C 2.28125 -4.71875 1.789062 -4.175781 1.53125 -3.96875 C 0.914062 -3.445312 0.203125 -3.144531 -0.609375 -3.0625 C -1.203125 -3 -1.628906 -3.113281 -1.890625 -3.40625 C -2.160156 -3.707031 -2.210938 -4.15625 -2.046875 -4.75 C -1.804688 -5.6875 -1.394531 -6.554688 -0.8125 -7.359375 C -0.101562 -8.253906 0.710938 -9.007812 1.640625 -9.625 C 2.140625 -9.988281 2.6875 -10.1875 3.28125 -10.21875 C 3.882812 -10.269531 4.289062 -9.992188 4.5 -9.390625 C 4.582031 -9.203125 4.566406 -9.023438 4.453125 -8.859375 C 4.285156 -8.660156 4.070312 -8.582031 3.8125 -8.625 C 3.789062 -8.613281 3.765625 -8.609375 3.734375 -8.609375 C 3.703125 -8.617188 3.675781 -8.632812 3.65625 -8.65625 C 3.34375 -8.957031 3.066406 -9.054688 2.828125 -8.953125 C 2.585938 -8.859375 2.332031 -8.707031 2.0625 -8.5 C 0.851562 -7.5 0.0351562 -6.25 -0.390625 -4.75 C -0.410156 -4.675781 -0.421875 -4.601562 -0.421875 -4.53125 C -0.421875 -4.457031 -0.390625 -4.398438 -0.328125 -4.359375 C -0.160156 -4.328125 0.0078125 -4.363281 0.1875 -4.46875 C 0.375 -4.582031 0.550781 -4.722656 0.71875 -4.890625 C 0.882812 -5.066406 1.023438 -5.21875 1.140625 -5.34375 C 1.140625 -5.375 1.140625 -5.390625 1.140625 -5.390625 C 1.703125 -6.015625 2.238281 -6.65625 2.75 -7.3125 C 2.96875 -7.644531 3.273438 -7.859375 3.671875 -7.953125 C 4.242188 -8.046875 4.519531 -7.832031 4.5 -7.3125 C 4.476562 -7.113281 4.453125 -6.910156 4.421875 -6.703125 C 4.335938 -5.835938 4.410156 -5.351562 4.640625 -5.25 C 4.878906 -5.144531 5.195312 -5.195312 5.59375 -5.40625 C 6 -5.613281 6.382812 -5.953125 6.75 -6.421875 C 7.125 -6.898438 7.425781 -7.328125 7.65625 -7.703125 C 7.894531 -8.085938 8.128906 -8.238281 8.359375 -8.15625 Z M 8.359375 -8.15625 "/></g></g><g transform="translate(280.676423, 194.490871)"><g><path d="M 5.296875 -7.21875 C 5.523438 -7.550781 5.734375 -7.75 5.921875 -7.8125 C 6.109375 -7.882812 6.238281 -7.878906 6.3125 -7.796875 C 6.382812 -7.722656 6.375 -7.585938 6.28125 -7.390625 C 5.65625 -6.347656 4.921875 -5.414062 4.078125 -4.59375 C 3.242188 -3.769531 2.335938 -3.222656 1.359375 -2.953125 C 0.378906 -2.691406 -0.316406 -3.140625 -0.734375 -4.296875 C -1.078125 -5.460938 -0.75 -8 0.25 -11.90625 C 1.257812 -15.820312 2.035156 -19.023438 2.578125 -21.515625 C 2.628906 -21.734375 2.722656 -21.929688 2.859375 -22.109375 C 3.015625 -22.347656 3.25 -22.4375 3.5625 -22.375 C 3.664062 -22.34375 3.773438 -22.285156 3.890625 -22.203125 C 4.003906 -22.117188 4.0625 -21.960938 4.0625 -21.734375 C 1.53125 -11.328125 0.398438 -5.707031 0.671875 -4.875 C 0.941406 -4.050781 1.523438 -3.929688 2.421875 -4.515625 C 3.328125 -5.097656 4.003906 -5.65625 4.453125 -6.1875 C 4.910156 -6.71875 5.191406 -7.0625 5.296875 -7.21875 Z M 5.296875 -7.21875 "/></g></g><g transform="translate(287.16994, 193.43617)"><g><path d="M 6.59375 -6.1875 C 6.175781 -5.613281 5.660156 -5.097656 5.046875 -4.640625 C 4.441406 -4.179688 3.921875 -3.859375 3.484375 -3.671875 C 3.046875 -3.492188 2.59375 -3.363281 2.125 -3.28125 C 1.375 -3.113281 0.65625 -3.097656 -0.03125 -3.234375 C -1.144531 -3.492188 -1.640625 -4.25 -1.515625 -5.5 C -1.378906 -6.570312 -0.894531 -7.472656 -0.0625 -8.203125 C 0.769531 -8.941406 1.6875 -9.390625 2.6875 -9.546875 C 2.6875 -9.546875 2.691406 -9.546875 2.703125 -9.546875 C 2.953125 -9.597656 3.191406 -9.613281 3.421875 -9.59375 C 3.828125 -9.519531 4.101562 -9.335938 4.25 -9.046875 C 4.40625 -8.753906 4.390625 -8.394531 4.203125 -7.96875 C 3.785156 -7.03125 3.113281 -6.4375 2.1875 -6.1875 C 1.5625 -6.019531 0.945312 -5.953125 0.34375 -5.984375 C 0.226562 -5.984375 0.128906 -5.9375 0.046875 -5.84375 C -0.0234375 -5.75 -0.0625 -5.640625 -0.0625 -5.515625 C -0.113281 -4.753906 0.195312 -4.320312 0.875 -4.21875 C 1.695312 -4.070312 2.507812 -4.203125 3.3125 -4.609375 C 4.21875 -5.066406 5.039062 -5.789062 5.78125 -6.78125 C 6.53125 -7.769531 6.972656 -8.242188 7.109375 -8.203125 C 7.253906 -8.171875 7.328125 -8.015625 7.328125 -7.734375 C 7.265625 -7.285156 7.019531 -6.769531 6.59375 -6.1875 Z M 0.71875 -7.40625 C 0.664062 -7.332031 0.632812 -7.253906 0.625 -7.171875 C 0.625 -7.097656 0.664062 -7.035156 0.75 -6.984375 C 1.082031 -6.867188 1.425781 -6.859375 1.78125 -6.953125 C 2.132812 -7.054688 2.414062 -7.238281 2.625 -7.5 C 2.84375 -7.769531 2.90625 -8.0625 2.8125 -8.375 C 2.769531 -8.476562 2.695312 -8.535156 2.59375 -8.546875 C 2.488281 -8.566406 2.390625 -8.5625 2.296875 -8.53125 C 1.671875 -8.3125 1.144531 -7.9375 0.71875 -7.40625 Z M 0.71875 -7.40625 "/></g></g></g><g clip-path="url(#00eabfa586)"><g clip-path="url(#ca242b5f14)"><g transform="matrix(1, 0, 0, 1, 287, 188)"><g clip-path="url(#dc5030c1af)"><g clip-path="url(#ed94bf1579)"><g clip-path="url(#e395ccbe8c)"><path fill="#000000" d="M 0.0664062 0.25 L 4.136719 0.25 L 4.136719 4.320312 L 0.0664062 4.320312 Z M 0.0664062 0.25 " fill-opacity="1" fill-rule="nonzero"/></g></g></g></g></g></g></svg>