<svg xmlns="http://www.w3.org/2000/svg">
    <defs>
        <symbol id="logo" xmlns="http://www.w3.org/2000/svg">
            <path d="M56.3 30.5H59.8L61.1 26.7H68L69.3 30.5H72.9L66.7 12.6H62.5L56.3 30.5ZM62 23.8L64.5 16.3L67 23.8H62Z" />
            <path d="M74.5 30.5H77.6V12.3H74.5V30.5Z" />
            <path d="M86.8 30.8C88.1 30.8 89.3 30.5 90.3 29.9C91.3 29.3 92 28.5 92.4 27.6L89.9 26.4C89.6 26.9 89.2 27.3 88.7 27.6C88.2 27.9 87.6 28.1 86.9 28.1C86 28.1 85.2 27.8 84.5 27.2C83.8 26.6 83.5 25.9 83.4 24.9H92.8C92.9 24.7 92.9 24.5 92.9 24.3C92.9 24.1 92.9 23.8 92.9 23.6C92.9 22.4 92.7 21.4 92.2 20.4C91.7 19.4 91 18.7 90 18.1C89.1 17.5 87.9 17.2 86.5 17.2C85.3 17.2 84.2 17.5 83.2 18.1C82.2 18.7 81.4 19.5 80.9 20.5C80.3 21.5 80.1 22.7 80.1 24C80.1 25.3 80.4 26.4 80.9 27.5C81.5 28.5 82.2 29.4 83.3 30C84.3 30.5 85.4 30.8 86.8 30.8ZM86.5 19.7C87.3 19.7 88 20 88.6 20.5C89.2 21 89.5 21.6 89.5 22.4H83.4C83.6 21.5 83.9 20.9 84.5 20.4C85.1 20 85.8 19.7 86.5 19.7Z" />
            <path d="M93.9 30.5H97.6L100.3 26.4L103 30.5H106.7L102.2 23.9L106.8 17.4H103.1L100.4 21.5L97.6 17.4H93.9L98.5 23.9L93.9 30.5Z" />
            <path d="M109.9 30.5H113.1V27.1H109.9V30.5Z"/>
            <path d="M20 0.5C9 0.5 0 9.5 0 20.5C0 31.5 9 40.5 20 40.5C31 40.5 40 31.5 40 20.5C40 9.5 31 0.5 20 0.5ZM11.8 28C9.6 28 7.8 26.2 7.8 24C7.8 21.8 9.6 20 11.8 20C14 20 15.8 21.8 15.8 24C15.8 26.2 14 28 11.8 28ZM28.5 26.9C26.7 28 24.3 27.3 23.2 25.5L17.6 15.8C16.5 14 17.2 11.6 19 10.5C20.8 9.4 23.2 10.1 24.3 11.9L29.9 21.6C31 23.5 30.3 25.9 28.5 26.9Z"/>
        </symbol>
        <symbol id="more-links" xmlns="http://www.w3.org/2000/svg">
            <path fill-rule="evenodd" clip-rule="evenodd" d="M1.29456 0.302994C0.633558 0.302994 0.0965576 0.839994 0.0965576 1.49899C0.0965576 2.15899 0.633558 2.69699 1.29456 2.69699C1.95556 2.69699 2.49256 2.15899 2.49256 1.49899C2.49256 0.839994 1.95556 0.302994 1.29456 0.302994ZM5.77366 0.302994C5.11266 0.302994 4.57566 0.839994 4.57566 1.49899C4.57566 2.15899 5.11266 2.69699 5.77366 2.69699C6.43466 2.69699 6.97166 2.15899 6.97166 1.49899C6.97166 0.839994 6.43466 0.302994 5.77366 0.302994ZM9.05506 1.49899C9.05506 0.839994 9.59206 0.302994 10.2531 0.302994C10.9141 0.302994 11.4511 0.839994 11.4511 1.49899C11.4511 2.15899 10.9141 2.69699 10.2531 2.69699C9.59206 2.69699 9.05506 2.15899 9.05506 1.49899Z"/>
        </symbol>
        <symbol id="moon-icon" xmlns="http://www.w3.org/2000/svg">
            <path d="M3.45105 17.5L3.60056 16.7651C3.30142 16.7042 2.99524 16.8307 2.82633 17.085C2.65741 17.3393 2.65947 17.6706 2.83153 17.9227L3.45105 17.5ZM11.451 3.5L11.4708 2.75026C11.1648 2.74222 10.8847 2.92087 10.7629 3.20166C10.6412 3.48244 10.7023 3.80903 10.9173 4.02685L11.451 3.5ZM21.201 12.5C21.201 7.18571 16.8584 2.89187 11.4708 2.75026L11.4313 4.24974C16.0452 4.37102 19.701 8.03726 19.701 12.5H21.201ZM11.451 22.25C16.9921 22.25 21.201 17.8776 21.201 12.5H19.701C19.701 17.0653 16.1477 20.75 11.451 20.75V22.25ZM2.83153 17.9227C4.64405 20.5791 7.99904 22.25 11.451 22.25V20.75C8.44527 20.75 5.57681 19.2847 4.07057 17.0773L2.83153 17.9227ZM3.30154 18.2349C7.64261 19.118 11.363 16.8566 13.2142 13.6399C15.0678 10.4189 15.1042 6.13357 11.9848 2.97315L10.9173 4.02685C13.4808 6.62418 13.4932 10.1476 11.9141 12.8917C10.3326 15.6399 7.21152 17.4996 3.60056 16.7651L3.30154 18.2349Z"/>
        </symbol>
        <symbol id="sun-icon" xmlns="http://www.w3.org/2000/svg">
            <path d="M3 11.25C2.58579 11.25 2.25 11.5858 2.25 12C2.25 12.4142 2.58579 12.75 3 12.75V11.25ZM5 12.75C5.41421 12.75 5.75 12.4142 5.75 12C5.75 11.5858 5.41421 11.25 5 11.25V12.75ZM4.46973 18.4697C4.17684 18.7626 4.17684 19.2374 4.46973 19.5303C4.76262 19.8232 5.2375 19.8232 5.53039 19.5303L4.46973 18.4697ZM7.53039 17.5303C7.82328 17.2374 7.82328 16.7626 7.53039 16.4697C7.2375 16.1768 6.76262 16.1768 6.46973 16.4697L7.53039 17.5303ZM12.75 19C12.75 18.5858 12.4142 18.25 12 18.25C11.5858 18.25 11.25 18.5858 11.25 19H12.75ZM11.25 21C11.25 21.4142 11.5858 21.75 12 21.75C12.4142 21.75 12.75 21.4142 12.75 21H11.25ZM17.5303 16.4697C17.2374 16.1768 16.7626 16.1768 16.4697 16.4697C16.1768 16.7626 16.1768 17.2374 16.4697 17.5303L17.5303 16.4697ZM18.4697 19.5303C18.7626 19.8232 19.2374 19.8232 19.5303 19.5303C19.8232 19.2374 19.8232 18.7626 19.5303 18.4697L18.4697 19.5303ZM5.53033 4.46967C5.23744 4.17678 4.76256 4.17678 4.46967 4.46967C4.17678 4.76256 4.17678 5.23744 4.46967 5.53033L5.53033 4.46967ZM6.46967 7.53033C6.76256 7.82322 7.23744 7.82322 7.53033 7.53033C7.82322 7.23744 7.82322 6.76256 7.53033 6.46967L6.46967 7.53033ZM19 11.25C18.5858 11.25 18.25 11.5858 18.25 12C18.25 12.4142 18.5858 12.75 19 12.75V11.25ZM21 12.75C21.4142 12.75 21.75 12.4142 21.75 12C21.75 11.5858 21.4142 11.25 21 11.25V12.75ZM16.4696 6.46967C16.1767 6.76256 16.1767 7.23744 16.4696 7.53033C16.7625 7.82322 17.2374 7.82322 17.5303 7.53033L16.4696 6.46967ZM19.5303 5.53033C19.8232 5.23744 19.8232 4.76256 19.5303 4.46967C19.2374 4.17678 18.7625 4.17678 18.4696 4.46967L19.5303 5.53033ZM12.75 3C12.75 2.58579 12.4142 2.25 12 2.25C11.5858 2.25 11.25 2.58579 11.25 3H12.75ZM11.25 5C11.25 5.41421 11.5858 5.75 12 5.75C12.4142 5.75 12.75 5.41421 12.75 5H11.25ZM14.25 12C14.25 13.2426 13.2426 14.25 12 14.25V15.75C14.0711 15.75 15.75 14.0711 15.75 12H14.25ZM12 14.25C10.7574 14.25 9.75 13.2426 9.75 12H8.25C8.25 14.0711 9.92893 15.75 12 15.75V14.25ZM9.75 12C9.75 10.7574 10.7574 9.75 12 9.75V8.25C9.92893 8.25 8.25 9.92893 8.25 12H9.75ZM12 9.75C13.2426 9.75 14.25 10.7574 14.25 12H15.75C15.75 9.92893 14.0711 8.25 12 8.25V9.75ZM3 12.75H5V11.25H3V12.75ZM5.53039 19.5303L7.53039 17.5303L6.46973 16.4697L4.46973 18.4697L5.53039 19.5303ZM11.25 19V21H12.75V19H11.25ZM16.4697 17.5303L18.4697 19.5303L19.5303 18.4697L17.5303 16.4697L16.4697 17.5303ZM4.46967 5.53033L6.46967 7.53033L7.53033 6.46967L5.53033 4.46967L4.46967 5.53033ZM19 12.75H21V11.25H19V12.75ZM17.5303 7.53033L19.5303 5.53033L18.4696 4.46967L16.4696 6.46967L17.5303 7.53033ZM11.25 3V5H12.75V3H11.25Z"/>
        </symbol>
        <symbol id="Tableau-Icon" xmlns="http://www.w3.org/2000/svg">
        <path d="M11.6185 2.2234H9.66654V2.94792H11.6185V5.16679H12.3815V2.94792H14.3823V2.2234H12.3815V0H11.6185V2.2234Z" fill="#7099A6"/>
        <path d="M5.23919 5.5517H2.28466V6.56604H5.23919V9.84906H6.33494V6.56604H9.33383V5.5517H6.33494V2.31849H5.23919V5.5517Z" fill="#EB912C"/>
        <path d="M17.6207 5.5517H14.6662V6.61585H17.6207V9.84906H18.7608V6.61585H21.7153V5.5517H18.7608V2.31849H17.6207V5.5517Z" fill="#232E35"/>
        <path d="M11.3346 11.2528H8.04732V12.6023H11.3346V16.2249H12.6654V12.6023H15.9527V11.2528H12.6654V7.63019H11.3346V11.2528Z" fill="#E8762C"/>
        <path d="M21.0011 11.4928H19.0004V12.4121H21.0011V14.6808H21.9993V12.4121H24V11.4928H21.9993V9.22415H21.0011V11.4928Z" fill="#5B6591"/>
        <path d="M1.95194 11.5426H0V12.3125H1.95194V14.486H2.71497V12.3125L4.71571 12.24V11.5426H2.71497V9.36906H1.95194V11.5426Z" fill="#7099A6"/>
        <path d="M5.23919 17.1894H2.28466V18.2536H5.23919V21.4868H6.3793V18.2536H9.33383V17.1894H6.3793V13.9562H5.23919V17.1894Z" fill="#C72035"/>
        <path d="M17.6207 17.1894H14.6662V18.2038H17.6207V21.4868H18.7608V18.2038H21.7153V17.1894H18.7608V13.9562H17.6207V17.1894Z" fill="#1F447E"/>
        <path d="M11.5253 20.8121H9.52458V21.7313H11.5253V24H12.5235V21.7313H14.5242V20.8121H12.5235V18.5434H11.5253V20.8121Z" fill="#5B6591"/>
       </symbol>
       <symbol id="Github-icon" xmlns="http://www.w3.org/2000/svg">
        <path d="M10.0703 20.5029C10.0703 20.3563 10.038 20.2114 9.97578 20.0786C9.91353 19.9458 9.82284 19.8283 9.71014 19.7345C9.59743 19.6407 9.46546 19.5728 9.32359 19.5356C9.18171 19.4984 9.03341 19.493 8.88917 19.5195C7.58009 19.7597 5.92726 19.7959 5.4878 18.5615C5.10461 17.6055 4.46987 16.771 3.65089 16.1465C3.59246 16.1147 3.53677 16.0781 3.48439 16.0371C3.41272 15.8481 3.2854 15.6852 3.11925 15.5699C2.95311 15.4547 2.75592 15.3925 2.55372 15.3916H2.54884C2.28444 15.3915 2.03077 15.4962 1.84335 15.6827C1.65594 15.8692 1.55004 16.1223 1.54884 16.3867C1.54493 17.2022 2.35984 17.7246 2.69044 17.9014C3.08029 18.2931 3.39359 18.7541 3.61427 19.2608C3.97853 20.2842 5.03712 21.8369 8.08009 21.6368C8.08109 21.6719 8.08204 21.7051 8.08253 21.7354L8.08692 22.003C8.08692 22.2682 8.19228 22.5225 8.37982 22.7101C8.56735 22.8976 8.82171 23.003 9.08692 23.003C9.35214 23.003 9.60649 22.8976 9.79403 22.7101C9.98157 22.5225 10.0869 22.2682 10.0869 22.003L10.082 21.6846C10.0772 21.4951 10.0703 21.2207 10.0703 20.5029ZM20.7373 5.37691C20.7691 5.25191 20.8003 5.11324 20.8277 4.95699C20.9894 3.84258 20.8484 2.70518 20.4195 1.66399C20.3653 1.52825 20.2822 1.40599 20.1758 1.30579C20.0694 1.20559 19.9425 1.12986 19.8037 1.08392C19.4477 0.963798 18.1333 0.727468 15.6197 2.33392C13.5302 1.84221 11.3551 1.84221 9.26565 2.33392C6.76222 0.750998 5.4546 0.965798 5.10206 1.07908C4.95993 1.12316 4.82946 1.19848 4.72021 1.29954C4.61097 1.40059 4.52572 1.5248 4.47071 1.66308C4.03301 2.72426 3.89355 3.88485 4.06739 5.01952C4.09181 5.14745 4.11817 5.26562 4.14552 5.37401C3.31709 6.47745 2.87583 7.82337 2.89015 9.20311C2.88745 9.51094 2.90163 9.8187 2.93263 10.125C3.26663 14.7275 6.26663 16.1094 8.35694 16.584C8.31349 16.709 8.27394 16.8428 8.23878 16.9844C8.17612 17.2417 8.21805 17.5133 8.35538 17.7397C8.49271 17.9662 8.71422 18.1289 8.97135 18.1922C9.22848 18.2556 9.50024 18.2144 9.72703 18.0776C9.95382 17.9409 10.1171 17.7198 10.1812 17.4629C10.2448 17.1297 10.4079 16.8236 10.6489 16.5849C10.7947 16.4573 10.9002 16.2901 10.9527 16.1036C11.0052 15.9172 11.0023 15.7194 10.9445 15.5346C10.8866 15.3497 10.7763 15.1856 10.6269 15.0622C10.4775 14.9389 10.2955 14.8616 10.103 14.8398C6.64894 14.4453 5.14942 13.0381 4.92384 9.9414C4.89885 9.69613 4.88761 9.44965 4.89015 9.20312C4.87411 8.21977 5.19898 7.2612 5.80958 6.49023C5.87093 6.40985 5.93628 6.3326 6.00538 6.25878C6.12781 6.12178 6.21013 5.9537 6.2433 5.77298C6.27646 5.59227 6.25919 5.40591 6.19338 5.23437C6.12592 5.0539 6.07397 4.868 6.03811 4.6787C5.95664 4.14041 5.98337 3.59129 6.11671 3.06346C6.98585 3.30893 7.80383 3.7085 8.53171 4.24314C8.65208 4.32331 8.78828 4.37667 8.93108 4.39958C9.07388 4.4225 9.21994 4.41444 9.35935 4.37596C11.3805 3.82746 13.5113 3.8278 15.5322 4.37696C15.6724 4.4154 15.8192 4.423 15.9626 4.39923C16.106 4.37545 16.2425 4.32088 16.3628 4.23927C17.0872 3.70241 17.9018 3.29926 18.768 3.04884C18.9008 3.56399 18.9305 4.10029 18.8554 4.62696C18.8192 4.83449 18.7626 5.03796 18.6865 5.23439C18.6207 5.40593 18.6034 5.59229 18.6366 5.773C18.6697 5.95372 18.7521 6.1218 18.8745 6.2588C18.9516 6.34571 19.0288 6.43946 19.0981 6.52735C19.7044 7.28527 20.0238 8.23282 20 9.20311C20.0018 9.46272 19.9893 9.72223 19.9624 9.98045C19.7422 13.0361 18.2368 14.4443 14.7666 14.8398C14.5741 14.8617 14.392 14.9391 14.2427 15.0626C14.0933 15.1861 13.983 15.3503 13.9253 15.5352C13.8675 15.7202 13.8647 15.918 13.9172 16.1045C13.9698 16.2911 14.0754 16.4583 14.2212 16.5859C14.4698 16.8309 14.6333 17.1493 14.6875 17.4941C14.7551 17.7618 14.7861 18.0374 14.7798 18.3135V20.6475C14.77 21.2949 14.77 21.7802 14.77 22.0029C14.77 22.2681 14.8754 22.5225 15.0629 22.71C15.2504 22.8976 15.5048 23.0029 15.77 23.0029C16.0352 23.0029 16.2896 22.8976 16.4771 22.71C16.6647 22.5225 16.77 22.2681 16.77 22.0029C16.77 21.7861 16.77 21.3105 16.7798 20.6631V18.3135C16.7878 17.8713 16.7358 17.4301 16.625 17.0019C16.5933 16.8614 16.5545 16.7225 16.5088 16.5859C18.03 16.3332 19.4123 15.5489 20.4094 14.3725C21.4065 13.1962 21.9539 11.7042 21.9541 10.1621C21.987 9.84352 22.0024 9.52337 22 9.20311C22.0222 7.82188 21.5773 6.47363 20.7373 5.37693L20.7373 5.37691Z"/>
       </symbol>
        <symbol id="linkedin-icon" xmlns="http://www.w3.org/2000/svg">
            <path d="M15.9113 7.46278C15.0161 7.46239 14.1347 7.68384 13.3459 8.10731C13.2739 7.91773 13.146 7.75454 12.9791 7.63942C12.8121 7.52429 12.6141 7.46269 12.4113 7.46278H8.41135C8.28 7.4627 8.14993 7.48852 8.02857 7.53874C7.90722 7.58897 7.79695 7.66263 7.70407 7.7555C7.6112 7.84838 7.53754 7.95865 7.48732 8.08C7.43709 8.20136 7.41127 8.33143 7.41135 8.46278V20.4628C7.41127 20.5941 7.43709 20.7242 7.48731 20.8455C7.53754 20.9669 7.6112 21.0772 7.70407 21.1701C7.79694 21.2629 7.90721 21.3366 8.02857 21.3868C8.14993 21.437 8.28 21.4629 8.41135 21.4628H12.4113C12.5427 21.4629 12.6728 21.437 12.7941 21.3868C12.9155 21.3366 13.0258 21.2629 13.1186 21.1701C13.2115 21.0772 13.2852 20.9669 13.3354 20.8455C13.3856 20.7242 13.4114 20.5941 13.4113 20.4628V14.9628C13.4113 14.6976 13.5167 14.4432 13.7042 14.2557C13.8918 14.0681 14.1461 13.9628 14.4113 13.9628C14.6766 13.9628 14.9309 14.0681 15.1185 14.2557C15.306 14.4432 15.4113 14.6976 15.4113 14.9628V20.4628C15.4113 20.5941 15.4371 20.7242 15.4873 20.8455C15.5375 20.9669 15.6112 21.0772 15.7041 21.1701C15.7969 21.2629 15.9072 21.3366 16.0286 21.3868C16.1499 21.437 16.28 21.4629 16.4113 21.4628H20.4113C20.5427 21.4629 20.6728 21.437 20.7941 21.3868C20.9155 21.3366 21.0258 21.2629 21.1186 21.1701C21.2115 21.0772 21.2852 20.9669 21.3354 20.8455C21.3856 20.7242 21.4114 20.5941 21.4113 20.4628V12.9628C21.4095 11.5046 20.8295 10.1067 19.7984 9.07569C18.7674 8.04463 17.3695 7.46459 15.9113 7.46278V7.46278ZM19.4113 19.4628H17.4113V14.9628C17.4113 14.1671 17.0953 13.4041 16.5327 12.8415C15.9701 12.2788 15.207 11.9628 14.4113 11.9628C13.6157 11.9628 12.8526 12.2788 12.29 12.8415C11.7274 13.4041 11.4113 14.1671 11.4113 14.9628V19.4628H9.41135V9.46278H11.4113V10.1659C11.4115 10.3731 11.4759 10.5752 11.5958 10.7442C11.7157 10.9132 11.8851 11.0408 12.0806 11.1094C12.2761 11.178 12.4881 11.1842 12.6873 11.1271C12.8865 11.0701 13.063 10.9526 13.1926 10.7909C13.6414 10.2209 14.2569 9.80534 14.9533 9.60215C15.6497 9.39895 16.3922 9.4183 17.0771 9.65749C17.7619 9.89667 18.355 10.3438 18.7735 10.9363C19.192 11.5289 19.415 12.2373 19.4113 12.9628V19.4628ZM5.41135 7.46278H1.41135C1.28 7.4627 1.14994 7.48852 1.02858 7.53874C0.907216 7.58897 0.796947 7.66263 0.704074 7.7555C0.6112 7.84838 0.537544 7.95865 0.487316 8.08C0.437087 8.20136 0.411273 8.33143 0.411348 8.46278V20.4628C0.411272 20.5941 0.437085 20.7242 0.487313 20.8455C0.537541 20.9669 0.611197 21.0772 0.704071 21.1701C0.796945 21.2629 0.907214 21.3366 1.02857 21.3868C1.14993 21.437 1.28 21.4629 1.41135 21.4628H5.41135C5.54269 21.4629 5.67276 21.437 5.79412 21.3868C5.91548 21.3366 6.02575 21.2629 6.11862 21.1701C6.2115 21.0772 6.28515 20.9669 6.33538 20.8455C6.38561 20.7242 6.41142 20.5941 6.41135 20.4628V8.46278C6.41142 8.33143 6.38561 8.20136 6.33538 8.08C6.28515 7.95865 6.2115 7.84838 6.11862 7.7555C6.02575 7.66263 5.91548 7.58897 5.79412 7.53874C5.67276 7.48852 5.54269 7.4627 5.41135 7.46278V7.46278ZM4.41135 19.4628H2.41135V9.46278H4.41135V19.4628ZM3.426 0.00577646C2.98836 -0.0204201 2.54996 0.0426737 2.13747 0.191221C1.72498 0.339768 1.34702 0.570665 1.02657 0.869869C0.706111 1.16907 0.449863 1.53033 0.273406 1.93168C0.0969495 2.33302 0.00397074 2.76606 0.000124424 3.20447C-0.00372189 3.64287 0.0816447 4.07748 0.251033 4.48186C0.42042 4.88624 0.67029 5.25194 0.985445 5.55672C1.3006 5.8615 1.67446 6.09899 2.08428 6.25475C2.4941 6.41051 2.93132 6.48129 3.36935 6.46278H3.39767C3.83646 6.48884 4.27597 6.42516 4.68932 6.27563C5.10268 6.1261 5.4812 5.89385 5.80177 5.59309C6.12233 5.29232 6.37821 4.92935 6.55376 4.52636C6.7293 4.12336 6.82084 3.6888 6.82276 3.24924C6.82469 2.80967 6.73697 2.37433 6.56497 1.96981C6.39296 1.56529 6.14028 1.20009 5.82237 0.896522C5.50445 0.592957 5.12798 0.357401 4.71595 0.204248C4.30392 0.0510959 3.865 -0.0164369 3.42599 0.00577646H3.426ZM3.39768 4.46278H3.36935C3.19641 4.48378 3.02099 4.46756 2.85484 4.41521C2.68869 4.36285 2.53565 4.27558 2.40599 4.15924C2.27633 4.0429 2.17305 3.90018 2.10306 3.74065C2.03308 3.58112 1.99801 3.40848 2.00022 3.23429C2.00022 2.48819 2.55979 2.00577 3.426 2.00577C3.6007 1.98248 3.77836 1.9969 3.94701 2.04805C4.11567 2.09921 4.27141 2.18591 4.40373 2.30232C4.53606 2.41873 4.6419 2.56215 4.71414 2.72291C4.78637 2.88367 4.82331 3.05804 4.82248 3.23429C4.82248 3.98038 4.26291 4.46278 3.39768 4.46278Z"/>        
        </symbol>
        <symbol id="lines-vector" fill="none" xmlns="http://www.w3.org/2000/svg">
            <path opacity="0.7" d="M2.80345 51.8697L262.09 -134.416M1.17712 70.609L276.828 -127.774M5.82487 84.7034L289.325 -119.463M13.8773 96.2964L303.733 -112.573M19.3259 109.805L318.307 -105.806M26.3894 122.124L334 -99.8618M33.3691 134.507L345.143 -90.5662M40.3625 146.873L359.61 -83.7165M47.6961 158.995L370.682 -74.3626M53.7216 172.078L379.289 -63.1804M61.0689 184.182L389.465 -53.1658M69.0981 195.789L399.43 -42.9965M75.2673 208.751L393.901 -21.3809" stroke-width="2" stroke-miterlimit="10" stroke-linecap="round" stroke-linejoin="round" stroke-dasharray="0.3 0.3"/>
        </symbol>
        <symbol id="ux-service" xmlns="http://www.w3.org/2000/svg">
            <path d="M4.5 5L5.03033 4.46967C4.81583 4.25517 4.49324 4.191 4.21299 4.30709C3.93273 4.42318 3.75 4.69665 3.75 5H4.5ZM4.5 16H3.75C3.75 16.4142 4.08579 16.75 4.5 16.75V16ZM20.5 16V16.75C20.9142 16.75 21.25 16.4142 21.25 16H20.5ZM20.5 5H21.25C21.25 4.69665 21.0673 4.42318 20.787 4.30709C20.5068 4.191 20.1842 4.25517 19.9697 4.46967L20.5 5ZM16.5 9L15.9697 9.53033C16.2626 9.82322 16.7374 9.82322 17.0303 9.53033L16.5 9ZM8.5 9L7.96967 9.53033C8.26256 9.82322 8.73744 9.82322 9.03033 9.53033L8.5 9ZM12.5 5L13.0303 4.46967C12.7374 4.17678 12.2626 4.17678 11.9697 4.46967L12.5 5ZM4.5 18.25C4.08579 18.25 3.75 18.5858 3.75 19C3.75 19.4142 4.08579 19.75 4.5 19.75V18.25ZM20.5 19.75C20.9142 19.75 21.25 19.4142 21.25 19C21.25 18.5858 20.9142 18.25 20.5 18.25V19.75ZM3.75 5V16H5.25V5H3.75ZM4.5 16.75H20.5V15.25H4.5V16.75ZM21.25 16V5H19.75V16H21.25ZM19.9697 4.46967L15.9697 8.46967L17.0303 9.53033L21.0303 5.53033L19.9697 4.46967ZM3.96967 5.53033L7.96967 9.53033L9.03033 8.46967L5.03033 4.46967L3.96967 5.53033ZM9.03033 9.53033L13.0303 5.53033L11.9697 4.46967L7.96967 8.46967L9.03033 9.53033ZM11.9697 5.53033L15.9697 9.53033L17.0303 8.46967L13.0303 4.46967L11.9697 5.53033ZM4.5 19.75H20.5V18.25H4.5V19.75Z"/>
        </symbol>
        <symbol id="app-development" xmlns="http://www.w3.org/2000/svg">
            <path fill-rule="evenodd" clip-rule="evenodd" d="M13.6214 2.77078C12.9503 2.42052 12.0409 2.41511 11.3644 2.76448C9 4.33801 6.5 5.83801 4.35861 7.34206C4.0399 7.60541 3.81372 7.9881 3.81758 8.43854C3.82143 8.88714 4.05221 9.26471 4.36898 9.52372C6.5 10.838 9 12.338 11.3121 14.0603C11.9833 14.4105 12.8926 14.4159 13.5691 14.0666C16 12.338 17 11.838 20.5749 9.48898C20.8936 9.22563 21.1198 8.84294 21.116 8.3925C21.1121 7.9439 20.8813 7.56633 20.5646 7.30732C18.5 5.83801 16 4.33801 13.6214 2.77078ZM12.0527 4.09723C12.2924 3.97346 12.6861 3.97463 12.9274 4.10056C15 5.33801 17 6.83801 19.5343 8.40275C17.5 9.83801 15.5 11.338 12.8808 12.7338C12.6412 12.8576 12.2475 12.8564 12.0062 12.7305C9.61564 11.338 7.5 9.83801 5.3992 8.42829C7.5 6.83801 9 5.83801 12.0527 4.09723Z"/>
            <path d="M21.6638 12.1085C21.8832 12.4599 21.7762 12.9226 21.4248 13.1419L15.3176 16.9548C14.5 17.338 13.4939 17.838 12.5 17.838C11.5061 17.8381 10.5 17.338 9.61564 16.9552L3.57531 13.1854C3.22391 12.9661 3.11683 12.5035 3.33613 12.1521C3.55544 11.8007 4.01808 11.6936 4.36948 11.9129L10.4098 15.6827C10.954 16.0223 11.7266 16.3381 12.5 16.338C13.2734 16.338 13.9792 16.0221 14.5232 15.6824L20.6304 11.8695C20.9818 11.6502 21.4444 11.7572 21.6638 12.1085Z"/>
            <path d="M21.6638 15.8632C21.8832 16.2145 21.7762 16.6772 21.4249 16.8966L16.136 20.1995C14.5 21 13.7553 21.4947 12.4666 21.4948C11.1779 21.4949 9.5 20.5 8.79709 20.1999L3.57523 16.9401C3.22386 16.7208 3.11683 16.2581 3.33618 15.9067C3.55553 15.5554 4.01818 15.4483 4.36955 15.6677L9.59142 18.9275C10.3644 19.4101 11.3984 19.8381 12.4666 19.838C13.5348 19.8379 14.5686 19.4098 15.3414 18.9272L20.6303 15.6243C20.9817 15.4049 21.4444 15.5119 21.6638 15.8632Z"/>
        </symbol>
        <symbol id="web-development" xmlns="http://www.w3.org/2000/svg">
            <path d="M20.75 12C20.75 16.5563 17.0563 20.25 12.5 20.25V21.75C17.8848 21.75 22.25 17.3848 22.25 12H20.75ZM12.5 20.25C7.94365 20.25 4.25 16.5563 4.25 12H2.75C2.75 17.3848 7.11522 21.75 12.5 21.75V20.25ZM4.25 12C4.25 7.44365 7.94365 3.75 12.5 3.75V2.25C7.11522 2.25 2.75 6.61522 2.75 12H4.25ZM12.5 3.75C17.0563 3.75 20.75 7.44365 20.75 12H22.25C22.25 6.61522 17.8848 2.25 12.5 2.25V3.75ZM12.5 3C12.05 3.6 12.0497 3.5998 12.0495 3.59961C12.0494 3.59956 12.0492 3.59939 12.0491 3.59929C12.0488 3.5991 12.0486 3.59895 12.0485 3.59885C12.0482 3.59864 12.0482 3.59862 12.0484 3.59877C12.0488 3.59908 12.0501 3.6001 12.0523 3.60183C12.0568 3.6053 12.0649 3.61163 12.0764 3.62081C12.0994 3.63917 12.1358 3.66893 12.1838 3.71007C12.2798 3.79238 12.4218 3.92001 12.5947 4.09283C12.9407 4.43885 13.4077 4.96357 13.876 5.66603C14.8106 7.06805 15.75 9.17573 15.75 12H17.25C17.25 8.82427 16.1894 6.43195 15.124 4.83397C14.5923 4.03643 14.0593 3.43615 13.6553 3.03217C13.4532 2.82999 13.2827 2.67637 13.16 2.57118C13.0986 2.51857 13.0491 2.47802 13.0134 2.4495C12.9956 2.43525 12.9813 2.42399 12.9706 2.41575C12.9653 2.41162 12.9609 2.40825 12.9574 2.40562C12.9557 2.40431 12.9542 2.40319 12.953 2.40225C12.9524 2.40178 12.9518 2.40136 12.9513 2.40098C12.9511 2.4008 12.9507 2.40055 12.9506 2.40046C12.9503 2.40022 12.95 2.4 12.5 3ZM15.75 12C15.75 14.8243 14.8106 16.9319 13.876 18.334C13.4077 19.0364 12.9407 19.5611 12.5947 19.9072C12.4218 20.08 12.2798 20.2076 12.1838 20.2899C12.1358 20.3311 12.0994 20.3608 12.0764 20.3792C12.0649 20.3884 12.0568 20.3947 12.0523 20.3982C12.0501 20.3999 12.0488 20.4009 12.0484 20.4012C12.0482 20.4014 12.0482 20.4014 12.0485 20.4012C12.0486 20.401 12.0488 20.4009 12.0491 20.4007C12.0492 20.4006 12.0494 20.4004 12.0495 20.4004C12.0497 20.4002 12.05 20.4 12.5 21C12.95 21.6 12.9503 21.5998 12.9506 21.5995C12.9507 21.5994 12.9511 21.5992 12.9513 21.599C12.9518 21.5986 12.9524 21.5982 12.953 21.5977C12.9542 21.5968 12.9557 21.5957 12.9574 21.5944C12.9609 21.5918 12.9653 21.5884 12.9706 21.5843C12.9813 21.576 12.9956 21.5648 13.0134 21.5505C13.0491 21.522 13.0986 21.4814 13.16 21.4288C13.2827 21.3236 13.4532 21.17 13.6553 20.9678C14.0593 20.5639 14.5923 19.9636 15.124 19.166C16.1894 17.5681 17.25 15.1757 17.25 12H15.75ZM12.5 21C12.95 20.4 12.9503 20.4002 12.9505 20.4004C12.9506 20.4004 12.9508 20.4006 12.9509 20.4007C12.9512 20.4009 12.9514 20.401 12.9515 20.4012C12.9518 20.4014 12.9518 20.4014 12.9516 20.4012C12.9512 20.4009 12.9499 20.3999 12.9477 20.3982C12.9432 20.3947 12.9351 20.3884 12.9236 20.3792C12.9006 20.3608 12.8642 20.3311 12.8162 20.2899C12.7202 20.2076 12.5782 20.08 12.4053 19.9072C12.0593 19.5611 11.5923 19.0364 11.124 18.334C10.1894 16.9319 9.25 14.8243 9.25 12H7.75C7.75 15.1757 8.81065 17.5681 9.87596 19.166C10.4077 19.9636 10.9407 20.5639 11.3447 20.9678C11.5468 21.17 11.7173 21.3236 11.84 21.4288C11.9014 21.4814 11.9509 21.522 11.9866 21.5505C12.0044 21.5648 12.0187 21.576 12.0294 21.5843C12.0347 21.5884 12.0391 21.5918 12.0426 21.5944C12.0443 21.5957 12.0458 21.5968 12.047 21.5977C12.0476 21.5982 12.0482 21.5986 12.0487 21.599C12.0489 21.5992 12.0493 21.5994 12.0494 21.5995C12.0497 21.5998 12.05 21.6 12.5 21ZM9.25 12C9.25 9.17573 10.1894 7.06805 11.124 5.66603C11.5923 4.96357 12.0593 4.43885 12.4053 4.09283C12.5782 3.92001 12.7202 3.79238 12.8162 3.71007C12.8642 3.66893 12.9006 3.63917 12.9236 3.62081C12.9351 3.61163 12.9432 3.6053 12.9477 3.60183C12.9499 3.6001 12.9512 3.59908 12.9516 3.59877C12.9518 3.59862 12.9518 3.59864 12.9515 3.59885C12.9514 3.59895 12.9512 3.5991 12.9509 3.59929C12.9508 3.59939 12.9506 3.59956 12.9505 3.59961C12.9503 3.5998 12.95 3.6 12.5 3C12.05 2.4 12.0497 2.40022 12.0494 2.40046C12.0493 2.40055 12.0489 2.4008 12.0487 2.40098C12.0482 2.40136 12.0476 2.40178 12.047 2.40225C12.0458 2.40319 12.0443 2.40431 12.0426 2.40562C12.0391 2.40825 12.0347 2.41162 12.0294 2.41575C12.0187 2.42399 12.0044 2.43525 11.9866 2.4495C11.9509 2.47802 11.9014 2.51857 11.84 2.57118C11.7173 2.67637 11.5468 2.82999 11.3447 3.03217C10.9407 3.43615 10.4077 4.03643 9.87596 4.83397C8.81065 6.43195 7.75 8.82427 7.75 12H9.25ZM21.5 11.25H3.5V12.75H21.5V11.25Z"/>
        </symbol>
        <symbol id="arrow-right" xmlns="http://www.w3.org/2000/svg">
            <path d="M9.46967 16.4697C9.17678 16.7626 9.17678 17.2374 9.46967 17.5303C9.76256 17.8232 10.2374 17.8232 10.5303 17.5303L9.46967 16.4697ZM15 12L15.5303 12.5303C15.671 12.3897 15.75 12.1989 15.75 12C15.75 11.8011 15.671 11.6103 15.5303 11.4697L15 12ZM10.5303 6.46967C10.2374 6.17678 9.76256 6.17678 9.46967 6.46967C9.17678 6.76256 9.17678 7.23744 9.46967 7.53033L10.5303 6.46967ZM10.5303 17.5303L15.5303 12.5303L14.4697 11.4697L9.46967 16.4697L10.5303 17.5303ZM15.5303 11.4697L10.5303 6.46967L9.46967 7.53033L14.4697 12.5303L15.5303 11.4697Z"/>
        </symbol>
        <symbol id="arrow-left" xmlns="http://www.w3.org/2000/svg">
            <path d="M14.5303 7.53033C14.8232 7.23744 14.8232 6.76256 14.5303 6.46967C14.2374 6.17678 13.7626 6.17678 13.4697 6.46967L14.5303 7.53033ZM9 12L8.46967 11.4697C8.32902 11.6103 8.25 11.8011 8.25 12C8.25 12.1989 8.32902 12.3897 8.46967 12.5303L9 12ZM13.4697 17.5303C13.7626 17.8232 14.2374 17.8232 14.5303 17.5303C14.8232 17.2374 14.8232 16.7626 14.5303 16.4697L13.4697 17.5303ZM13.4697 6.46967L8.46967 11.4697L9.53033 12.5303L14.5303 7.53033L13.4697 6.46967ZM8.46967 12.5303L13.4697 17.5303L14.5303 16.4697L9.53033 11.4697L8.46967 12.5303Z"/>
        </symbol>
        <symbol id="link" xmlns="http://www.w3.org/2000/svg">
            <path d="M15 15.25C14.5858 15.25 14.25 15.5858 14.25 16C14.25 16.4142 14.5858 16.75 15 16.75V15.25ZM15 7.25C14.5858 7.25 14.25 7.58579 14.25 8C14.25 8.41421 14.5858 8.75 15 8.75V7.25ZM8 11.25C7.58579 11.25 7.25 11.5858 7.25 12C7.25 12.4142 7.58579 12.75 8 12.75V11.25ZM16 12.75C16.4142 12.75 16.75 12.4142 16.75 12C16.75 11.5858 16.4142 11.25 16 11.25V12.75ZM9 8.75C9.41421 8.75 9.75 8.41421 9.75 8C9.75 7.58579 9.41421 7.25 9 7.25V8.75ZM9 16.75C9.41421 16.75 9.75 16.4142 9.75 16C9.75 15.5858 9.41421 15.25 9 15.25V16.75ZM17 8.75C18.7949 8.75 20.25 10.2051 20.25 12H21.75C21.75 9.37665 19.6234 7.25 17 7.25V8.75ZM20.25 12C20.25 13.7949 18.7949 15.25 17 15.25V16.75C19.6234 16.75 21.75 14.6234 21.75 12H20.25ZM17 15.25H15V16.75H17V15.25ZM17 7.25H15V8.75H17V7.25ZM8 12.75H16V11.25H8V12.75ZM7 15.25C5.20507 15.25 3.75 13.7949 3.75 12H2.25C2.25 14.6234 4.37665 16.75 7 16.75V15.25ZM3.75 12C3.75 10.2051 5.20507 8.75 7 8.75V7.25C4.37665 7.25 2.25 9.37665 2.25 12H3.75ZM7 8.75H9V7.25H7V8.75ZM7 16.75H9V15.25H7V16.75Z"/>
        </symbol>
        <symbol id="quote-icon" xmlns="http://www.w3.org/2000/svg">
            <path d="M16.5 14L17.0303 13.4697C16.8897 13.329 16.6989 13.25 16.5 13.25V14ZM20 17.5L19.4697 18.0303C19.6842 18.2448 20.0068 18.309 20.287 18.1929C20.5673 18.0768 20.75 17.8033 20.75 17.5H20ZM6.5 14L7.03033 13.4697C6.88968 13.329 6.69891 13.25 6.5 13.25V14ZM10 17.5L9.46967 18.0303C9.68417 18.2448 10.0068 18.309 10.287 18.1929C10.5673 18.0768 10.75 17.8033 10.75 17.5H10ZM16.5 13.25C14.9812 13.25 13.75 12.0188 13.75 10.5H12.25C12.25 12.8472 14.1528 14.75 16.5 14.75V13.25ZM13.75 10.5C13.75 8.98122 14.9812 7.75 16.5 7.75V6.25C14.1528 6.25 12.25 8.15279 12.25 10.5H13.75ZM16.5 7.75C18.0188 7.75 19.25 8.98122 19.25 10.5H20.75C20.75 8.15279 18.8472 6.25 16.5 6.25V7.75ZM15.9697 14.5303L19.4697 18.0303L20.5303 16.9697L17.0303 13.4697L15.9697 14.5303ZM20.75 17.5V10.5H19.25V17.5H20.75ZM6.5 13.25C4.98122 13.25 3.75 12.0188 3.75 10.5H2.25C2.25 12.8472 4.15279 14.75 6.5 14.75V13.25ZM3.75 10.5C3.75 8.98122 4.98122 7.75 6.5 7.75V6.25C4.15279 6.25 2.25 8.15279 2.25 10.5H3.75ZM6.5 7.75C8.01878 7.75 9.25 8.98122 9.25 10.5H10.75C10.75 8.15279 8.84721 6.25 6.5 6.25V7.75ZM5.96967 14.5303L9.46967 18.0303L10.5303 16.9697L7.03033 13.4697L5.96967 14.5303ZM10.75 17.5V10.5H9.25V17.5H10.75Z"/>
        </symbol>
        <symbol id="address-icon" xmlns="http://www.w3.org/2000/svg">
            <path d="M11.25 21C11.25 21.4142 11.5858 21.75 12 21.75C12.4142 21.75 12.75 21.4142 12.75 21H11.25ZM11.25 13V21H12.75V13H11.25ZM16.25 8C16.25 10.3472 14.3472 12.25 12 12.25V13.75C15.1756 13.75 17.75 11.1756 17.75 8H16.25ZM12 12.25C9.65279 12.25 7.75 10.3472 7.75 8H6.25C6.25 11.1756 8.82436 13.75 12 13.75V12.25ZM7.75 8C7.75 5.65279 9.65279 3.75 12 3.75V2.25C8.82436 2.25 6.25 4.82436 6.25 8H7.75ZM12 3.75C14.3472 3.75 16.25 5.65279 16.25 8H17.75C17.75 4.82436 15.1756 2.25 12 2.25V3.75Z" />
        </symbol>
        <symbol id="phone-icon" xmlns="http://www.w3.org/2000/svg">
            <path d="M20.9995 16.4767L20.2497 16.458C20.2495 16.4642 20.2495 16.4705 20.2495 16.4767H20.9995ZM20.9995 19.1864H20.2494L20.2495 19.1895L20.9995 19.1864ZM4.80817 3.00009V2.25009L4.80746 2.25009L4.80817 3.00009ZM7.52331 3.00009V3.75012L7.53068 3.75005L7.52331 3.00009ZM8.72138 3.43684L8.2329 4.00596V4.00596L8.72138 3.43684ZM8.41026 10.1448L7.88045 9.61399C7.64112 9.85285 7.59121 10.2223 7.7586 10.5161L8.41026 10.1448ZM13.8405 15.5644L13.4704 16.2167C13.7636 16.383 14.1317 16.3334 14.3703 16.0952L13.8405 15.5644ZM20.5709 15.264L21.1427 14.7786V14.7786L20.5709 15.264ZM10.0429 8.10428L10.7763 8.26101L10.0429 8.10428ZM15.8851 13.935L16.0413 14.6686L15.8851 13.935ZM19.0265 20.9929L19.0938 20.246C19.0712 20.2439 19.0486 20.2429 19.0259 20.2429L19.0265 20.9929ZM3.00713 4.96919L3.75713 4.96978C3.75714 4.947 3.75612 4.92424 3.75407 4.90155L3.00713 4.96919ZM14.6436 5.76388C14.2371 5.68456 13.8432 5.94983 13.7639 6.35638C13.6846 6.76293 13.9498 7.1568 14.3564 7.23612L14.6436 5.76388ZM16.7639 9.64362C16.8432 10.0502 17.2371 10.3154 17.6436 10.2361C18.0502 10.1568 18.3154 9.76293 18.2361 9.35638L16.7639 9.64362ZM15.0828 2.25459C14.6711 2.20885 14.3003 2.50551 14.2546 2.91719C14.2089 3.32887 14.5055 3.69968 14.9172 3.74541L15.0828 2.25459ZM19 5L19.53 4.46934L19 5ZM20.2547 9.08375C20.3009 9.49537 20.6721 9.79156 21.0837 9.74531C21.4954 9.69906 21.7916 9.32788 21.7453 8.91625L20.2547 9.08375ZM20.2495 16.4767V19.1864H21.7495V16.4767H20.2495ZM4.80817 3.75009H7.52331V2.25009H4.80817V3.75009ZM7.53068 3.75005C7.78834 3.74752 8.03791 3.8386 8.2329 4.00596L9.20985 2.86772C8.73878 2.46341 8.13673 2.24403 7.51594 2.25012L7.53068 3.75005ZM7.7586 10.5161C9.11389 12.8949 11.0873 14.8643 13.4704 16.2167L14.2107 14.9121C12.0622 13.6928 10.2834 11.9175 9.06191 9.77357L7.7586 10.5161ZM19.9992 15.7494C20.1671 15.9472 20.2561 16.1994 20.2497 16.458L21.7492 16.4953C21.7648 15.868 21.5488 15.257 21.1427 14.7786L19.9992 15.7494ZM8.2329 4.00596C8.35549 4.11118 8.51659 4.32916 8.68369 4.67844C8.84497 5.01557 8.9876 5.42365 9.09918 5.85282C9.33166 6.74707 9.38949 7.57289 9.30943 7.94755L10.7763 8.26101C10.9306 7.53916 10.8011 6.43759 10.5509 5.47541C10.4212 4.97637 10.2487 4.47397 10.0368 4.0311C9.83075 3.60038 9.56067 3.16883 9.20985 2.86772L8.2329 4.00596ZM16.0413 14.6686C16.4183 14.5883 17.25 14.6466 18.1485 14.8801C18.58 14.9922 18.9898 15.1355 19.3278 15.2975C19.6782 15.4655 19.8954 15.6272 19.9992 15.7494L21.1427 14.7786C20.8418 14.4242 20.4084 14.1521 19.9763 13.9449C19.5318 13.7318 19.0271 13.5585 18.5258 13.4283C17.5589 13.177 16.4523 13.0475 15.729 13.2014L16.0413 14.6686ZM14.3703 16.0952C14.5321 15.9338 14.6946 15.7535 14.8397 15.5953C14.991 15.4303 15.1318 15.2798 15.2754 15.1446C15.5686 14.8684 15.8113 14.7175 16.0413 14.6686L15.729 13.2014C15.1012 13.335 14.6149 13.7061 14.247 14.0526C14.06 14.2287 13.8871 14.4147 13.7341 14.5815C13.5748 14.7552 13.4424 14.9021 13.3107 15.0335L14.3703 16.0952ZM9.30943 7.94755C9.26059 8.17614 9.10984 8.41795 8.833 8.71075C8.69753 8.85403 8.54673 8.99453 8.38134 9.1456C8.22285 9.29036 8.04217 9.45259 7.88045 9.61399L8.94006 10.6757C9.0717 10.5443 9.21891 10.4121 9.39295 10.2531C9.5601 10.1005 9.74648 9.92793 9.92296 9.74128C10.27 9.3742 10.6422 8.8885 10.7763 8.26101L9.30943 7.94755ZM19.0259 20.2429C10.4163 20.2497 3.75039 13.523 3.75713 4.96978L2.25713 4.96859C2.24974 14.3469 9.58385 21.7503 19.027 21.7429L19.0259 20.2429ZM20.2495 19.1895C20.2519 19.7851 19.6976 20.3004 19.0938 20.246L18.9591 21.7399C20.4469 21.8741 21.7555 20.6595 21.7494 19.1834L20.2495 19.1895ZM3.75407 4.90155C3.70006 4.30506 4.21004 3.75065 4.80887 3.75009L4.80746 2.25009C3.33723 2.25147 2.12581 3.55284 2.26018 5.03682L3.75407 4.90155ZM14.3564 7.23612C14.9878 7.35931 15.5701 7.63076 15.9697 8.03033L17.0303 6.96967C16.3677 6.30708 15.4866 5.92834 14.6436 5.76388L14.3564 7.23612ZM15.9697 8.03033C16.3692 8.4299 16.6407 9.01224 16.7639 9.64362L18.2361 9.35638C18.0717 8.51344 17.6929 7.63226 17.0303 6.96967L15.9697 8.03033ZM14.9172 3.74541C16.2556 3.8941 17.4818 4.54368 18.47 5.53066L19.53 4.46934C18.3376 3.27846 16.8075 2.44618 15.0828 2.25459L14.9172 3.74541ZM18.47 5.53066C19.4567 6.51616 20.1041 7.74372 20.2547 9.08375L21.7453 8.91625C21.5518 7.19365 20.7239 5.6617 19.53 4.46934L18.47 5.53066Z"/>
        </symbol>
        <symbol id="email-icon" xmlns="http://www.w3.org/2000/svg">
            <path d="M10.5858 12.5857L11.1161 12.0554L11.1161 12.0554L10.5858 12.5857ZM13.4142 12.5857L12.8839 12.0554L12.8839 12.0554L13.4142 12.5857ZM4 5.75H20V4.25H4V5.75ZM20.25 6V18H21.75V6H20.25ZM20 18.25H4V19.75H20V18.25ZM3.75 18V6H2.25V18H3.75ZM4 18.25C3.86193 18.25 3.75 18.1381 3.75 18H2.25C2.25 18.9665 3.0335 19.75 4 19.75V18.25ZM20.25 18C20.25 18.1381 20.1381 18.25 20 18.25V19.75C20.9665 19.75 21.75 18.9665 21.75 18H20.25ZM4 4.25C3.51696 4.25 3.07843 4.4467 2.76256 4.76256L3.82322 5.82322C3.86929 5.77716 3.93076 5.75 4 5.75V4.25ZM2.76256 4.76256C2.4467 5.07843 2.25 5.51696 2.25 6H3.75C3.75 5.93076 3.77716 5.86929 3.82322 5.82322L2.76256 4.76256ZM20 5.75C20.0692 5.75 20.1307 5.77716 20.1768 5.82322L21.2374 4.76256C20.9216 4.4467 20.483 4.25 20 4.25V5.75ZM20.1768 5.82322C20.2228 5.86928 20.25 5.93076 20.25 6H21.75C21.75 5.51696 21.5533 5.07843 21.2374 4.76256L20.1768 5.82322ZM10.0555 13.1161C11.1294 14.19 12.8706 14.19 13.9445 13.1161L12.8839 12.0554C12.3957 12.5436 11.6043 12.5436 11.1161 12.0554L10.0555 13.1161ZM2.76256 5.82323L10.0555 13.1161L11.1161 12.0554L3.82322 4.76256L2.76256 5.82323ZM13.9445 13.1161L21.2374 5.82323L20.1768 4.76256L12.8839 12.0554L13.9445 13.1161Z"/>
        </symbol>
        <symbol id="menu" xmlns="http://www.w3.org/2000/svg">
            <path d="M4 16.25C3.58579 16.25 3.25 16.5858 3.25 17C3.25 17.4142 3.58579 17.75 4 17.75V16.25ZM20 17.75C20.4142 17.75 20.75 17.4142 20.75 17C20.75 16.5858 20.4142 16.25 20 16.25V17.75ZM4 11.25C3.58579 11.25 3.25 11.5858 3.25 12C3.25 12.4142 3.58579 12.75 4 12.75V11.25ZM20 12.75C20.4142 12.75 20.75 12.4142 20.75 12C20.75 11.5858 20.4142 11.25 20 11.25V12.75ZM4 6.25C3.58579 6.25 3.25 6.58579 3.25 7C3.25 7.41421 3.58579 7.75 4 7.75V6.25ZM20 7.75C20.4142 7.75 20.75 7.41421 20.75 7C20.75 6.58579 20.4142 6.25 20 6.25V7.75ZM4 17.75H20V16.25H4V17.75ZM4 12.75H20V11.25H4V12.75ZM4 7.75H20V6.25H4V7.75Z"/>
        </symbol>
    </defs>
</svg>
